<svg xmlns="http://www.w3.org/2000/svg" xmlns:xlink="http://www.w3.org/1999/xlink" width="500" zoomAndPan="magnify" viewBox="0 0 375 374.999991" height="500" preserveAspectRatio="xMidYMid meet" version="1.2"><defs><clipPath id="0792418774"><path d="M 48.085938 48.085938 L 333.835938 48.085938 L 333.835938 333.835938 L 48.085938 333.835938 Z M 48.085938 48.085938 "/></clipPath></defs><g id="6779c97551"><g clip-rule="nonzero" clip-path="url(#0792418774)"><path style=" stroke:none;fill-rule:nonzero;fill:#000000;fill-opacity:1;" d="M 88.609375 90.953125 C 65.507812 114.523438 51.460938 145.480469 48.601562 178.578125 C 56.222656 180.007812 65.269531 179.769531 75.75 177.625 C 95.511719 172.859375 119.085938 160.476562 140.042969 141.191406 C 160.996094 121.902344 175.285156 99.757812 181.238281 80.230469 C 185.285156 67.609375 185.761719 56.65625 183.378906 48.085938 C 147.660156 49.988281 113.847656 65.230469 88.609375 90.945312 Z M 48.363281 199.058594 C 52.414062 267.160156 103.609375 322.882812 170.996094 332.40625 C 171.472656 323.597656 173.140625 314.308594 176 305.023438 C 184.332031 278.113281 202.667969 249.777344 229.101562 225.488281 C 255.53125 201.199219 285.058594 185.246094 312.679688 179.058594 C 319.585938 177.390625 326.492188 176.675781 333.398438 176.4375 C 326.253906 108.335938 272.4375 54.757812 204.335938 48.328125 C 206.238281 60.234375 204.8125 73.328125 200.761719 86.1875 C 193.144531 110 176.949219 134.765625 153.851562 156.195312 C 130.515625 177.628906 104.5625 191.914062 80.273438 197.390625 C 69.320312 199.773438 58.367188 200.488281 48.363281 199.058594 Z M 238.386719 244.539062 C 216.71875 265.734375 201.953125 289.785156 195.285156 310.976562 C 192.90625 319.308594 191.476562 326.929688 191.238281 333.835938 C 266.246094 333.601562 328.398438 275.972656 333.875 201.199219 C 333.875 199.773438 333.875 198.105469 333.875 196.675781 C 328.632812 196.914062 322.921875 197.632812 316.96875 198.820312 C 293.867188 204.058594 266.960938 218.347656 242.910156 240.492188 C 241.242188 241.921875 239.816406 243.347656 238.386719 244.539062 Z M 238.386719 244.539062 "/></g><g style="fill:#000000;fill-opacity:1;"><g transform="translate(198.680114, 133.758778)"><path style="stroke:none" d="M 0.21875 0.015625 C 0.164062 0.015625 0.125 0 0.09375 -0.03125 C 0.0625 -0.0625 0.046875 -0.101562 0.046875 -0.15625 C 0.046875 -0.1875 0.0507812 -0.210938 0.0625 -0.234375 C 0.0820312 -0.253906 0.101562 -0.269531 0.125 -0.28125 C 0.15625 -0.300781 0.195312 -0.3125 0.25 -0.3125 C 0.28125 -0.320312 0.304688 -0.328125 0.328125 -0.328125 C 0.347656 -0.335938 0.363281 -0.347656 0.375 -0.359375 C 0.382812 -0.367188 0.390625 -0.382812 0.390625 -0.40625 C 0.390625 -0.425781 0.378906 -0.441406 0.359375 -0.453125 C 0.335938 -0.472656 0.3125 -0.484375 0.28125 -0.484375 C 0.238281 -0.484375 0.207031 -0.472656 0.1875 -0.453125 C 0.164062 -0.441406 0.144531 -0.425781 0.125 -0.40625 L 0.109375 -0.40625 L 0.078125 -0.453125 C 0.0976562 -0.484375 0.125 -0.503906 0.15625 -0.515625 C 0.1875 -0.535156 0.226562 -0.546875 0.28125 -0.546875 C 0.34375 -0.546875 0.390625 -0.53125 0.421875 -0.5 C 0.453125 -0.476562 0.46875 -0.441406 0.46875 -0.390625 L 0.46875 -0.109375 C 0.46875 -0.078125 0.476562 -0.0625 0.5 -0.0625 C 0.507812 -0.0625 0.519531 -0.0625 0.53125 -0.0625 L 0.546875 -0.015625 C 0.535156 -0.00390625 0.523438 0 0.515625 0 C 0.503906 0 0.492188 0 0.484375 0 C 0.453125 0 0.429688 -0.00390625 0.421875 -0.015625 C 0.410156 -0.0234375 0.398438 -0.046875 0.390625 -0.078125 L 0.375 -0.078125 C 0.363281 -0.046875 0.34375 -0.0195312 0.3125 0 C 0.289062 0.0078125 0.257812 0.015625 0.21875 0.015625 Z M 0.234375 -0.046875 C 0.265625 -0.046875 0.289062 -0.0507812 0.3125 -0.0625 C 0.332031 -0.0820312 0.347656 -0.101562 0.359375 -0.125 C 0.378906 -0.15625 0.390625 -0.1875 0.390625 -0.21875 L 0.390625 -0.28125 L 0.375 -0.296875 C 0.363281 -0.285156 0.347656 -0.273438 0.328125 -0.265625 C 0.316406 -0.265625 0.296875 -0.257812 0.265625 -0.25 C 0.234375 -0.25 0.207031 -0.242188 0.1875 -0.234375 C 0.164062 -0.222656 0.148438 -0.210938 0.140625 -0.203125 C 0.140625 -0.191406 0.140625 -0.175781 0.140625 -0.15625 C 0.140625 -0.125 0.144531 -0.0976562 0.15625 -0.078125 C 0.175781 -0.0546875 0.203125 -0.046875 0.234375 -0.046875 Z M 0.234375 -0.046875 "/></g></g></g></svg>