<svg xmlns="http://www.w3.org/2000/svg" xmlns:xlink="http://www.w3.org/1999/xlink" width="500" zoomAndPan="magnify" viewBox="0 0 375 374.999991" height="500" preserveAspectRatio="xMidYMid meet" version="1.2"><defs><clipPath id="2f96399165"><path d="M 90 25.171875 L 285 25.171875 L 285 254 L 90 254 Z M 90 25.171875 "/></clipPath><clipPath id="15d6348b11"><path d="M 116 164 L 259 164 L 259 331.171875 L 116 331.171875 Z M 116 164 "/></clipPath></defs><g id="e8722619bd"><g style="fill:#000000;fill-opacity:1;"><g transform="translate(272.024048, 112.086864)"><path style="stroke:none" d="M 3.5625 0.171875 C 2.707031 0.171875 2.039062 -0.0507812 1.5625 -0.5 C 1.09375 -0.945312 0.859375 -1.582031 0.859375 -2.40625 C 0.859375 -2.914062 0.960938 -3.34375 1.171875 -3.6875 C 1.378906 -4.039062 1.703125 -4.328125 2.140625 -4.546875 C 2.585938 -4.773438 3.171875 -4.945312 3.890625 -5.0625 C 4.515625 -5.164062 4.988281 -5.28125 5.3125 -5.40625 C 5.632812 -5.539062 5.851562 -5.6875 5.96875 -5.84375 C 6.082031 -6.007812 6.140625 -6.21875 6.140625 -6.46875 C 6.140625 -6.851562 6.003906 -7.148438 5.734375 -7.359375 C 5.460938 -7.566406 5.03125 -7.671875 4.4375 -7.671875 C 3.882812 -7.671875 3.40625 -7.5625 3 -7.34375 C 2.601562 -7.132812 2.238281 -6.816406 1.90625 -6.390625 L 1.75 -6.390625 L 1.125 -7.265625 C 1.488281 -7.734375 1.953125 -8.101562 2.515625 -8.375 C 3.078125 -8.644531 3.71875 -8.78125 4.4375 -8.78125 C 5.457031 -8.78125 6.207031 -8.554688 6.6875 -8.109375 C 7.164062 -7.671875 7.40625 -7.054688 7.40625 -6.265625 L 7.40625 -1.703125 C 7.40625 -1.222656 7.609375 -0.984375 8.015625 -0.984375 C 8.148438 -0.984375 8.28125 -1.003906 8.40625 -1.046875 L 8.515625 -1.015625 L 8.671875 -0.140625 C 8.578125 -0.078125 8.453125 -0.03125 8.296875 0 C 8.140625 0.0390625 7.984375 0.0625 7.828125 0.0625 C 7.347656 0.0625 6.988281 -0.0390625 6.75 -0.25 C 6.507812 -0.457031 6.351562 -0.765625 6.28125 -1.171875 L 6.125 -1.1875 C 5.875 -0.738281 5.539062 -0.398438 5.125 -0.171875 C 4.707031 0.0546875 4.1875 0.171875 3.5625 0.171875 Z M 3.84375 -0.859375 C 4.320312 -0.859375 4.734375 -0.96875 5.078125 -1.1875 C 5.429688 -1.40625 5.703125 -1.710938 5.890625 -2.109375 C 6.078125 -2.515625 6.171875 -2.984375 6.171875 -3.515625 L 6.171875 -4.609375 L 6.03125 -4.640625 C 5.832031 -4.503906 5.59375 -4.390625 5.3125 -4.296875 C 5.039062 -4.203125 4.660156 -4.117188 4.171875 -4.046875 C 3.671875 -3.984375 3.269531 -3.878906 2.96875 -3.734375 C 2.675781 -3.597656 2.46875 -3.421875 2.34375 -3.203125 C 2.21875 -2.984375 2.15625 -2.71875 2.15625 -2.40625 C 2.15625 -1.894531 2.300781 -1.507812 2.59375 -1.25 C 2.894531 -0.988281 3.3125 -0.859375 3.84375 -0.859375 Z M 3.84375 -0.859375 "/></g></g><g clip-rule="nonzero" clip-path="url(#2f96399165)"><path style=" stroke:none;fill-rule:nonzero;fill:#d0b076;fill-opacity:1;" d="M 239.574219 253.90625 L 90.828125 253.90625 L 90.828125 136.167969 L 96.855469 132.488281 L 102.882812 136.167969 L 102.882812 241.847656 L 239.574219 241.847656 Z M 278.292969 253.90625 L 246.214844 253.90625 L 246.214844 241.847656 L 272.265625 241.847656 L 272.265625 91.199219 L 187.574219 39.277344 L 102.882812 91.199219 L 102.882812 128.296875 L 96.855469 124.617188 L 90.828125 128.296875 L 90.828125 84.453125 L 93.691406 82.714844 L 184.410156 27.117188 L 187.574219 25.171875 L 190.742188 27.117188 L 281.460938 82.714844 L 284.320312 84.453125 L 284.320312 253.90625 Z M 278.292969 253.90625 "/></g><path style=" stroke:none;fill-rule:nonzero;fill:#d0b076;fill-opacity:1;" d="M 207.597656 190.640625 L 207.597656 153.847656 L 210.460938 152.113281 L 265.523438 118.382812 L 265.523438 132.488281 L 219.550781 160.59375 L 219.550781 198.101562 Z M 207.597656 235.203125 L 207.597656 190.640625 L 219.652344 190.949219 L 219.652344 235.203125 Z M 342.960938 277.414062 L 207.597656 277.414062 L 207.597656 241.949219 L 219.652344 241.949219 L 219.652344 265.355469 L 336.933594 265.355469 L 336.933594 160.59375 L 278.292969 124.617188 L 272.265625 128.296875 L 272.265625 114.195312 L 275.128906 112.457031 L 278.292969 110.515625 L 281.460938 112.457031 L 346.128906 152.113281 L 348.988281 153.847656 L 348.988281 277.414062 Z M 342.960938 277.414062 "/><path style=" stroke:none;fill-rule:nonzero;fill:#d0b076;fill-opacity:1;" d="M 155.496094 198 L 155.496094 160.492188 L 96.855469 124.515625 L 38.21875 160.492188 L 38.21875 265.25 L 110.238281 265.25 L 110.238281 277.3125 L 26.265625 277.3125 L 26.265625 153.847656 L 29.125 152.113281 L 93.792969 112.457031 L 96.960938 110.515625 L 100.125 112.457031 L 164.792969 152.113281 L 167.65625 153.847656 L 167.65625 190.640625 Z M 155.496094 253.90625 L 155.496094 206.484375 L 167.550781 199.125 L 167.550781 254.007812 L 155.496094 254.007812 Z M 161.523438 277.414062 L 118.414062 277.414062 L 118.414062 265.355469 L 155.496094 265.355469 L 155.496094 260.652344 L 167.550781 260.652344 L 167.550781 277.414062 Z M 161.523438 277.414062 "/><g clip-rule="nonzero" clip-path="url(#15d6348b11)"><path style=" stroke:none;fill-rule:nonzero;fill:#d0b076;fill-opacity:1;" d="M 226.292969 202.191406 L 246.214844 214.355469 L 246.214844 277.414062 L 258.269531 277.414062 L 258.269531 207.609375 L 255.410156 205.871094 L 226.398438 188.085938 L 226.398438 202.191406 Z M 167.550781 190.640625 L 187.574219 178.378906 L 219.652344 198 L 219.652344 183.898438 L 190.742188 166.113281 L 187.574219 164.171875 L 184.410156 166.113281 L 167.550781 176.539062 L 155.496094 183.898438 L 119.742188 205.769531 L 116.878906 207.507812 L 116.878906 235.101562 L 128.9375 235.101562 L 128.9375 214.25 C 141.808594 206.484375 154.679688 198.511719 167.550781 190.640625 Z M 252.242188 331.171875 L 116.878906 331.171875 L 116.878906 241.847656 L 128.9375 241.847656 L 128.9375 319.113281 L 246.214844 319.113281 L 246.214844 284.058594 L 258.269531 284.058594 L 258.269531 331.171875 Z M 252.242188 331.171875 "/></g></g></svg>