<svg xmlns="http://www.w3.org/2000/svg" xmlns:xlink="http://www.w3.org/1999/xlink" width="500" zoomAndPan="magnify" viewBox="0 0 375 374.999991" height="500" preserveAspectRatio="xMidYMid meet" version="1.2"><defs><clipPath id="664ed7a915"><path d="M 86 19 L 290 19 L 290 359.160156 L 86 359.160156 Z M 86 19 "/></clipPath></defs><g id="0d22617f88"><g style="fill:#000000;fill-opacity:1;"><g transform="translate(160.585336, 191.640564)"><path style="stroke:none" d="M 2.625 0.125 C 2 0.125 1.507812 -0.0351562 1.15625 -0.359375 C 0.800781 -0.691406 0.625 -1.160156 0.625 -1.765625 C 0.625 -2.140625 0.703125 -2.457031 0.859375 -2.71875 C 1.015625 -2.976562 1.253906 -3.1875 1.578125 -3.34375 C 1.910156 -3.507812 2.335938 -3.640625 2.859375 -3.734375 C 3.316406 -3.804688 3.664062 -3.890625 3.90625 -3.984375 C 4.144531 -4.078125 4.304688 -4.179688 4.390625 -4.296875 C 4.472656 -4.421875 4.515625 -4.570312 4.515625 -4.75 C 4.515625 -5.039062 4.414062 -5.265625 4.21875 -5.421875 C 4.019531 -5.578125 3.703125 -5.65625 3.265625 -5.65625 C 2.859375 -5.65625 2.503906 -5.570312 2.203125 -5.40625 C 1.910156 -5.25 1.644531 -5.015625 1.40625 -4.703125 L 1.28125 -4.703125 L 0.828125 -5.34375 C 1.097656 -5.6875 1.4375 -5.957031 1.84375 -6.15625 C 2.257812 -6.363281 2.734375 -6.46875 3.265625 -6.46875 C 4.015625 -6.46875 4.566406 -6.300781 4.921875 -5.96875 C 5.273438 -5.644531 5.453125 -5.191406 5.453125 -4.609375 L 5.453125 -1.25 C 5.453125 -0.894531 5.601562 -0.71875 5.90625 -0.71875 C 6 -0.71875 6.09375 -0.734375 6.1875 -0.765625 L 6.265625 -0.75 L 6.375 -0.09375 C 6.3125 -0.0507812 6.222656 -0.0195312 6.109375 0 C 5.992188 0.03125 5.878906 0.046875 5.765625 0.046875 C 5.410156 0.046875 5.144531 -0.03125 4.96875 -0.1875 C 4.789062 -0.34375 4.675781 -0.566406 4.625 -0.859375 L 4.5 -0.875 C 4.320312 -0.539062 4.078125 -0.289062 3.765625 -0.125 C 3.460938 0.0390625 3.082031 0.125 2.625 0.125 Z M 2.828125 -0.625 C 3.179688 -0.625 3.484375 -0.703125 3.734375 -0.859375 C 3.992188 -1.023438 4.191406 -1.253906 4.328125 -1.546875 C 4.472656 -1.847656 4.546875 -2.191406 4.546875 -2.578125 L 4.546875 -3.390625 L 4.4375 -3.40625 C 4.289062 -3.3125 4.113281 -3.226562 3.90625 -3.15625 C 3.707031 -3.09375 3.425781 -3.035156 3.0625 -2.984375 C 2.695312 -2.929688 2.40625 -2.851562 2.1875 -2.75 C 1.96875 -2.644531 1.8125 -2.507812 1.71875 -2.34375 C 1.632812 -2.1875 1.59375 -1.992188 1.59375 -1.765625 C 1.59375 -1.390625 1.703125 -1.101562 1.921875 -0.90625 C 2.140625 -0.71875 2.441406 -0.625 2.828125 -0.625 Z M 2.828125 -0.625 "/></g></g><g clip-rule="nonzero" clip-path="url(#664ed7a915)"><path style=" stroke:none;fill-rule:nonzero;fill:#766148;fill-opacity:1;" d="M 255.851562 359.1875 C 264.6875 359.1875 273.058594 355.734375 279.320312 349.472656 C 292.253906 336.539062 292.253906 315.46875 279.320312 302.59375 L 166.1875 189.457031 L 279.261719 76.324219 C 292.195312 63.390625 292.195312 42.378906 279.261719 29.441406 C 266.328125 16.507812 245.316406 16.507812 232.382812 29.441406 L 95.835938 165.988281 C 82.902344 178.921875 82.902344 199.992188 95.835938 212.871094 L 232.382812 349.472656 C 238.644531 355.734375 246.953125 359.1875 255.851562 359.1875 Z M 255.851562 31.433594 C 261.351562 31.433594 266.855469 33.539062 271.011719 37.695312 C 279.378906 46.066406 279.378906 59.703125 271.011719 68.070312 L 153.777344 185.300781 C 152.667969 186.414062 152.082031 187.878906 152.082031 189.457031 C 152.082031 191.039062 152.726562 192.5 153.777344 193.613281 L 271.011719 310.84375 C 279.378906 319.214844 279.378906 332.851562 271.011719 341.21875 C 262.875 349.296875 248.769531 349.355469 240.632812 341.21875 L 104.089844 204.675781 C 95.71875 196.304688 95.71875 182.667969 104.089844 174.300781 L 240.632812 37.695312 C 244.847656 33.539062 250.351562 31.433594 255.851562 31.433594 Z M 255.851562 31.433594 "/></g></g></svg>