<svg xmlns="http://www.w3.org/2000/svg" xmlns:xlink="http://www.w3.org/1999/xlink" width="500" zoomAndPan="magnify" viewBox="0 0 375 374.999991" height="500" preserveAspectRatio="xMidYMid meet" version="1.2"><defs><clipPath id="647dc09180"><path d="M 34 28.070312 L 354 28.070312 L 354 346.820312 L 34 346.820312 Z M 34 28.070312 "/></clipPath></defs><g id="f424967a13"><g style="fill:#000000;fill-opacity:1;"><g transform="translate(276.791002, 131.949147)"><path style="stroke:none" d="M 3.5625 0.171875 C 2.707031 0.171875 2.039062 -0.0507812 1.5625 -0.5 C 1.09375 -0.945312 0.859375 -1.582031 0.859375 -2.40625 C 0.859375 -2.914062 0.960938 -3.34375 1.171875 -3.6875 C 1.378906 -4.039062 1.703125 -4.328125 2.140625 -4.546875 C 2.585938 -4.773438 3.171875 -4.945312 3.890625 -5.0625 C 4.515625 -5.164062 4.988281 -5.28125 5.3125 -5.40625 C 5.632812 -5.539062 5.851562 -5.6875 5.96875 -5.84375 C 6.082031 -6.007812 6.140625 -6.21875 6.140625 -6.46875 C 6.140625 -6.851562 6.003906 -7.148438 5.734375 -7.359375 C 5.460938 -7.566406 5.03125 -7.671875 4.4375 -7.671875 C 3.882812 -7.671875 3.40625 -7.5625 3 -7.34375 C 2.601562 -7.132812 2.238281 -6.816406 1.90625 -6.390625 L 1.75 -6.390625 L 1.125 -7.265625 C 1.488281 -7.734375 1.953125 -8.101562 2.515625 -8.375 C 3.078125 -8.644531 3.71875 -8.78125 4.4375 -8.78125 C 5.457031 -8.78125 6.207031 -8.554688 6.6875 -8.109375 C 7.164062 -7.671875 7.40625 -7.054688 7.40625 -6.265625 L 7.40625 -1.703125 C 7.40625 -1.222656 7.609375 -0.984375 8.015625 -0.984375 C 8.148438 -0.984375 8.28125 -1.003906 8.40625 -1.046875 L 8.515625 -1.015625 L 8.671875 -0.140625 C 8.578125 -0.078125 8.453125 -0.03125 8.296875 0 C 8.140625 0.0390625 7.984375 0.0625 7.828125 0.0625 C 7.347656 0.0625 6.988281 -0.0390625 6.75 -0.25 C 6.507812 -0.457031 6.351562 -0.765625 6.28125 -1.171875 L 6.125 -1.1875 C 5.875 -0.738281 5.539062 -0.398438 5.125 -0.171875 C 4.707031 0.0546875 4.1875 0.171875 3.5625 0.171875 Z M 3.84375 -0.859375 C 4.320312 -0.859375 4.734375 -0.96875 5.078125 -1.1875 C 5.429688 -1.40625 5.703125 -1.710938 5.890625 -2.109375 C 6.078125 -2.515625 6.171875 -2.984375 6.171875 -3.515625 L 6.171875 -4.609375 L 6.03125 -4.640625 C 5.832031 -4.503906 5.59375 -4.390625 5.3125 -4.296875 C 5.039062 -4.203125 4.660156 -4.117188 4.171875 -4.046875 C 3.671875 -3.984375 3.269531 -3.878906 2.96875 -3.734375 C 2.675781 -3.597656 2.46875 -3.421875 2.34375 -3.203125 C 2.21875 -2.984375 2.15625 -2.71875 2.15625 -2.40625 C 2.15625 -1.894531 2.300781 -1.507812 2.59375 -1.25 C 2.894531 -0.988281 3.3125 -0.859375 3.84375 -0.859375 Z M 3.84375 -0.859375 "/></g></g><g clip-rule="nonzero" clip-path="url(#647dc09180)"><path style=" stroke:none;fill-rule:nonzero;fill:#cfa386;fill-opacity:1;" d="M 333.640625 251.941406 L 332.058594 250.53125 C 319.488281 239.242188 304.859375 229.203125 288.582031 220.699219 L 287.320312 220.027344 C 283.75 218.113281 279.230469 215.683594 273.773438 215.988281 C 262.769531 216.554688 254.050781 225.777344 246.351562 233.914062 C 242.6875 237.792969 239.222656 241.449219 236.261719 243.40625 C 229.378906 247.9375 222.191406 250.234375 214.890625 250.234375 C 198.859375 250.234375 184.671875 239.414062 175.589844 230.335938 L 150.921875 205.664062 C 136.332031 191.078125 122.226562 168.710938 137.851562 144.996094 C 139.804688 142.03125 143.464844 138.570312 147.339844 134.902344 C 155.476562 127.207031 164.699219 118.484375 165.269531 107.484375 C 165.554688 102 163.15625 97.53125 161.234375 93.945312 L 160.558594 92.679688 C 152.058594 76.402344 142.015625 61.777344 130.722656 49.199219 L 129.316406 47.613281 C 122.847656 40.300781 112.019531 28.070312 99.734375 28.070312 C 97.160156 28.070312 94.667969 28.601562 92.332031 29.65625 C 67.605469 40.785156 46.710938 75.074219 39.773438 95.867188 C 16.546875 165.457031 75.625 224.539062 107.367188 256.277344 L 124.976562 273.890625 C 162.851562 311.765625 204.589844 346.816406 253.09375 346.820312 C 253.09375 346.820312 253.097656 346.820312 253.101562 346.820312 C 263.917969 346.820312 274.78125 345.023438 285.390625 341.484375 C 306.179688 334.542969 340.46875 313.648438 351.601562 288.925781 C 358.390625 273.835938 342.289062 259.59375 333.640625 251.941406 Z M 338.683594 283.105469 C 329.410156 303.703125 298.722656 322.101562 280.902344 328.046875 C 271.746094 331.101562 262.390625 332.652344 253.097656 332.652344 C 253.097656 332.652344 253.09375 332.652344 253.09375 332.652344 C 209.742188 332.648438 170.714844 299.59375 134.992188 263.875 L 117.382812 246.261719 C 76.441406 205.316406 34.339844 156.898438 53.207031 100.351562 C 59.15625 82.53125 77.554688 51.847656 98.148438 42.570312 C 98.660156 42.34375 99.164062 42.234375 99.734375 42.234375 C 105.640625 42.234375 114.464844 52.207031 118.703125 57 L 120.183594 58.660156 C 130.6875 70.359375 140.046875 84.011719 148 99.242188 L 148.746094 100.640625 C 150.007812 102.992188 151.199219 105.210938 151.121094 106.75 C 150.84375 112.085938 143.808594 118.742188 137.605469 124.609375 C 133.117188 128.855469 128.875 132.867188 126.019531 137.199219 C 109.96875 161.566406 115.390625 190.167969 140.902344 215.679688 L 165.574219 240.351562 C 181.308594 256.085938 198.359375 264.402344 214.890625 264.402344 C 225.011719 264.402344 234.824219 261.316406 244.054688 255.230469 C 248.386719 252.378906 252.398438 248.140625 256.644531 243.648438 C 262.515625 237.445312 269.167969 230.410156 274.65625 230.128906 C 276.183594 230.128906 278.339844 231.285156 280.625 232.511719 L 282.019531 233.253906 C 297.25 241.210938 310.902344 250.574219 322.59375 261.074219 L 324.253906 262.550781 C 328.886719 266.652344 341.191406 277.535156 338.683594 283.105469 Z M 338.683594 283.105469 "/></g><path style=" stroke:none;fill-rule:nonzero;fill:#cfa386;fill-opacity:1;" d="M 224.644531 83.945312 C 224.640625 83.945312 224.636719 83.945312 224.632812 83.945312 C 220.726562 83.945312 217.554688 87.109375 217.546875 91.015625 C 217.539062 94.929688 220.707031 98.105469 224.617188 98.113281 C 239.546875 98.140625 253.5625 103.957031 264.085938 114.476562 C 274.613281 125.007812 280.414062 139.007812 280.414062 153.898438 C 280.414062 157.8125 283.585938 160.980469 287.496094 160.980469 C 291.410156 160.980469 294.582031 157.8125 294.582031 153.898438 C 294.582031 135.226562 287.308594 117.664062 274.101562 104.460938 C 260.910156 91.269531 243.347656 83.980469 224.644531 83.945312 Z M 224.644531 83.945312 "/><path style=" stroke:none;fill-rule:nonzero;fill:#cfa386;fill-opacity:1;" d="M 329.613281 161.011719 C 333.527344 161.011719 336.699219 157.839844 336.699219 153.929688 C 336.699219 123.992188 325.042969 95.84375 303.878906 74.679688 C 282.695312 53.496094 254.539062 41.832031 224.601562 41.832031 C 220.691406 41.832031 217.519531 45 217.519531 48.914062 C 217.519531 52.824219 220.691406 55.996094 224.601562 55.996094 C 250.757812 55.996094 275.351562 66.191406 293.863281 84.699219 C 312.347656 103.1875 322.53125 127.777344 322.53125 153.929688 C 322.53125 157.839844 325.703125 161.011719 329.613281 161.011719 Z M 329.613281 161.011719 "/></g></svg>