<svg xmlns="http://www.w3.org/2000/svg" xmlns:xlink="http://www.w3.org/1999/xlink" width="500" zoomAndPan="magnify" viewBox="0 0 375 374.999991" height="500" preserveAspectRatio="xMidYMid meet" version="1.2"><defs><clipPath id="ea9b245732"><path d="M 85 19 L 289 19 L 289 359.160156 L 85 359.160156 Z M 85 19 "/></clipPath></defs><g id="3757c99323"><g style="fill:#000000;fill-opacity:1;"><g transform="translate(210.640039, 191.640564)"><path style="stroke:none" d="M 2.625 0.125 C 2 0.125 1.507812 -0.0351562 1.15625 -0.359375 C 0.800781 -0.691406 0.625 -1.160156 0.625 -1.765625 C 0.625 -2.140625 0.703125 -2.457031 0.859375 -2.71875 C 1.015625 -2.976562 1.253906 -3.1875 1.578125 -3.34375 C 1.910156 -3.507812 2.335938 -3.640625 2.859375 -3.734375 C 3.316406 -3.804688 3.664062 -3.890625 3.90625 -3.984375 C 4.144531 -4.078125 4.304688 -4.179688 4.390625 -4.296875 C 4.472656 -4.421875 4.515625 -4.570312 4.515625 -4.75 C 4.515625 -5.039062 4.414062 -5.265625 4.21875 -5.421875 C 4.019531 -5.578125 3.703125 -5.65625 3.265625 -5.65625 C 2.859375 -5.65625 2.503906 -5.570312 2.203125 -5.40625 C 1.910156 -5.25 1.644531 -5.015625 1.40625 -4.703125 L 1.28125 -4.703125 L 0.828125 -5.34375 C 1.097656 -5.6875 1.4375 -5.957031 1.84375 -6.15625 C 2.257812 -6.363281 2.734375 -6.46875 3.265625 -6.46875 C 4.015625 -6.46875 4.566406 -6.300781 4.921875 -5.96875 C 5.273438 -5.644531 5.453125 -5.191406 5.453125 -4.609375 L 5.453125 -1.25 C 5.453125 -0.894531 5.601562 -0.71875 5.90625 -0.71875 C 6 -0.71875 6.09375 -0.734375 6.1875 -0.765625 L 6.265625 -0.75 L 6.375 -0.09375 C 6.3125 -0.0507812 6.222656 -0.0195312 6.109375 0 C 5.992188 0.03125 5.878906 0.046875 5.765625 0.046875 C 5.410156 0.046875 5.144531 -0.03125 4.96875 -0.1875 C 4.789062 -0.34375 4.675781 -0.566406 4.625 -0.859375 L 4.5 -0.875 C 4.320312 -0.539062 4.078125 -0.289062 3.765625 -0.125 C 3.460938 0.0390625 3.082031 0.125 2.625 0.125 Z M 2.828125 -0.625 C 3.179688 -0.625 3.484375 -0.703125 3.734375 -0.859375 C 3.992188 -1.023438 4.191406 -1.253906 4.328125 -1.546875 C 4.472656 -1.847656 4.546875 -2.191406 4.546875 -2.578125 L 4.546875 -3.390625 L 4.4375 -3.40625 C 4.289062 -3.3125 4.113281 -3.226562 3.90625 -3.15625 C 3.707031 -3.09375 3.425781 -3.035156 3.0625 -2.984375 C 2.695312 -2.929688 2.40625 -2.851562 2.1875 -2.75 C 1.96875 -2.644531 1.8125 -2.507812 1.71875 -2.34375 C 1.632812 -2.1875 1.59375 -1.992188 1.59375 -1.765625 C 1.59375 -1.390625 1.703125 -1.101562 1.921875 -0.90625 C 2.140625 -0.71875 2.441406 -0.625 2.828125 -0.625 Z M 2.828125 -0.625 "/></g></g><g clip-rule="nonzero" clip-path="url(#ea9b245732)"><path style=" stroke:none;fill-rule:nonzero;fill:#766148;fill-opacity:1;" d="M 119.140625 359.1875 C 110.300781 359.1875 101.933594 355.734375 95.671875 349.472656 C 82.734375 336.539062 82.734375 315.46875 95.671875 302.59375 L 208.804688 189.457031 L 95.730469 76.324219 C 82.792969 63.390625 82.792969 42.378906 95.730469 29.441406 C 108.664062 16.507812 129.675781 16.507812 142.609375 29.441406 L 279.15625 165.988281 C 292.089844 178.921875 292.089844 199.992188 279.15625 212.871094 L 142.609375 349.472656 C 136.347656 355.734375 128.035156 359.1875 119.140625 359.1875 Z M 119.140625 31.433594 C 113.636719 31.433594 108.136719 33.539062 103.980469 37.695312 C 95.613281 46.066406 95.613281 59.703125 103.980469 68.070312 L 221.210938 185.300781 C 222.324219 186.414062 222.910156 187.878906 222.910156 189.457031 C 222.910156 191.039062 222.265625 192.5 221.210938 193.613281 L 103.980469 310.84375 C 95.613281 319.214844 95.613281 332.851562 103.980469 341.21875 C 112.117188 349.296875 126.222656 349.355469 134.355469 341.21875 L 270.902344 204.675781 C 279.273438 196.304688 279.273438 182.667969 270.902344 174.300781 L 134.355469 37.695312 C 130.144531 33.539062 124.640625 31.433594 119.140625 31.433594 Z M 119.140625 31.433594 "/></g></g></svg>