<svg xmlns="http://www.w3.org/2000/svg" xmlns:xlink="http://www.w3.org/1999/xlink" width="500" zoomAndPan="magnify" viewBox="0 0 375 374.999991" height="500" preserveAspectRatio="xMidYMid meet" version="1.2"><defs><clipPath id="27913a77b3"><path d="M 28.285156 28.285156 L 325 28.285156 L 325 289 L 28.285156 289 Z M 28.285156 28.285156 "/></clipPath></defs><g id="ca45e20d5f"><path style=" stroke:none;fill-rule:nonzero;fill:#000000;fill-opacity:1;" d="M 298.695312 77.210938 L 300.214844 78.730469 C 302.34375 80.859375 302.09375 84.816406 299.605469 88.316406 L 293.21875 97.300781 C 292.65625 98.097656 292.148438 98.929688 291.703125 99.800781 C 291.257812 100.671875 290.875 101.570312 290.558594 102.496094 C 290.238281 103.417969 289.988281 104.363281 289.804688 105.324219 C 289.625 106.285156 289.511719 107.253906 289.464844 108.230469 C 289.421875 109.207031 289.449219 110.183594 289.542969 111.15625 C 289.640625 112.128906 289.804688 113.089844 290.039062 114.039062 C 290.269531 114.988281 290.570312 115.917969 290.9375 116.824219 C 291.304688 117.730469 291.730469 118.609375 292.222656 119.453125 L 292.355469 119.679688 C 292.84375 120.527344 293.386719 121.335938 293.988281 122.105469 C 294.589844 122.878906 295.246094 123.601562 295.953125 124.277344 C 296.65625 124.953125 297.410156 125.578125 298.203125 126.148438 C 299 126.714844 299.828125 127.226562 300.699219 127.675781 C 301.566406 128.125 302.460938 128.511719 303.386719 128.835938 C 304.308594 129.15625 305.25 129.414062 306.210938 129.601562 C 307.167969 129.789062 308.136719 129.90625 309.113281 129.957031 C 310.089844 130.003906 311.066406 129.984375 312.039062 129.894531 L 323.015625 128.855469 C 327.285156 128.449219 330.839844 130.214844 331.613281 133.121094 L 336.507812 151.382812 C 337.289062 154.292969 335.089844 157.59375 331.191406 159.378906 L 321.128906 163.988281 C 320.242188 164.394531 319.386719 164.863281 318.566406 165.394531 C 317.746094 165.925781 316.964844 166.507812 316.230469 167.152344 C 315.492188 167.792969 314.804688 168.484375 314.167969 169.222656 C 313.53125 169.960938 312.949219 170.742188 312.421875 171.566406 C 311.894531 172.390625 311.429688 173.246094 311.027344 174.136719 C 310.625 175.023438 310.285156 175.9375 310.015625 176.878906 C 309.742188 177.816406 309.535156 178.769531 309.398438 179.734375 C 309.265625 180.703125 309.195312 181.675781 309.199219 182.652344 L 309.199219 182.910156 C 309.195312 183.886719 309.265625 184.859375 309.398438 185.828125 C 309.535156 186.792969 309.742188 187.746094 310.015625 188.683594 C 310.285156 189.621094 310.625 190.535156 311.027344 191.425781 C 311.429688 192.316406 311.894531 193.171875 312.421875 193.996094 C 312.949219 194.816406 313.53125 195.597656 314.167969 196.339844 C 314.804688 197.078125 315.492188 197.769531 316.230469 198.410156 C 316.964844 199.050781 317.746094 199.636719 318.566406 200.167969 C 319.386719 200.695312 320.242188 201.167969 321.128906 201.574219 L 331.191406 206.183594 C 335.085938 207.96875 337.289062 211.269531 336.507812 214.175781 L 331.613281 232.441406 C 330.835938 235.351562 327.28125 237.109375 323.011719 236.707031 L 312.039062 235.667969 C 311.0625 235.578125 310.089844 235.558594 309.113281 235.605469 C 308.136719 235.65625 307.167969 235.773438 306.207031 235.960938 C 305.25 236.148438 304.304688 236.402344 303.382812 236.726562 C 302.460938 237.046875 301.5625 237.433594 300.695312 237.886719 C 299.828125 238.335938 298.996094 238.84375 298.203125 239.414062 C 297.40625 239.984375 296.65625 240.605469 295.949219 241.285156 C 295.246094 241.960938 294.589844 242.683594 293.988281 243.453125 C 293.386719 244.226562 292.839844 245.035156 292.355469 245.882812 L 292.222656 246.109375 C 291.730469 246.953125 291.300781 247.828125 290.9375 248.734375 C 290.570312 249.644531 290.269531 250.570312 290.035156 251.519531 C 289.804688 252.472656 289.636719 253.433594 289.542969 254.40625 C 289.445312 255.378906 289.421875 256.355469 289.464844 257.332031 C 289.507812 258.308594 289.621094 259.277344 289.804688 260.238281 C 289.988281 261.199219 290.238281 262.140625 290.554688 263.066406 C 290.875 263.992188 291.253906 264.890625 291.703125 265.757812 C 292.148438 266.628906 292.652344 267.464844 293.21875 268.261719 L 299.605469 277.246094 C 302.089844 280.742188 302.339844 284.703125 300.214844 286.832031 L 286.84375 300.199219 C 284.714844 302.328125 280.757812 302.078125 277.257812 299.59375 L 268.273438 293.207031 C 267.476562 292.640625 266.644531 292.132812 265.773438 291.6875 C 264.902344 291.242188 264.003906 290.859375 263.078125 290.542969 C 262.15625 290.226562 261.210938 289.972656 260.25 289.792969 C 259.289062 289.609375 258.320312 289.496094 257.34375 289.453125 C 256.367188 289.40625 255.390625 289.433594 254.417969 289.53125 C 253.445312 289.625 252.484375 289.789062 251.535156 290.023438 C 250.585938 290.257812 249.65625 290.554688 248.75 290.921875 C 247.84375 291.289062 246.964844 291.71875 246.121094 292.210938 L 245.894531 292.339844 C 245.046875 292.828125 244.238281 293.371094 243.46875 293.976562 C 242.695312 294.578125 241.972656 295.230469 241.296875 295.9375 C 240.621094 296.644531 239.996094 297.394531 239.425781 298.1875 C 238.859375 298.984375 238.347656 299.816406 237.898438 300.683594 C 237.449219 301.550781 237.0625 302.445312 236.738281 303.371094 C 236.417969 304.292969 236.160156 305.234375 235.972656 306.195312 C 235.785156 307.15625 235.667969 308.121094 235.617188 309.097656 C 235.570312 310.074219 235.589844 311.050781 235.679688 312.023438 L 236.71875 323 C 237.125 327.269531 235.359375 330.824219 232.453125 331.601562 L 214.191406 336.496094 C 211.28125 337.273438 207.980469 335.078125 206.195312 331.175781 L 201.585938 321.113281 C 201.179688 320.226562 200.710938 319.375 200.179688 318.554688 C 199.652344 317.730469 199.066406 316.953125 198.421875 316.21875 C 197.78125 315.480469 197.089844 314.792969 196.351562 314.15625 C 195.613281 313.515625 194.832031 312.933594 194.007812 312.410156 C 193.183594 311.882812 192.328125 311.417969 191.4375 311.015625 C 190.550781 310.613281 189.636719 310.273438 188.699219 310 C 187.757812 309.726562 186.808594 309.523438 185.839844 309.386719 C 184.871094 309.25 183.898438 309.183594 182.921875 309.1875 L 182.664062 309.1875 C 181.6875 309.183594 180.714844 309.25 179.746094 309.386719 C 178.78125 309.523438 177.828125 309.726562 176.890625 310 C 175.953125 310.273438 175.039062 310.613281 174.148438 311.015625 C 173.257812 311.417969 172.402344 311.882812 171.578125 312.410156 C 170.757812 312.933594 169.976562 313.515625 169.234375 314.15625 C 168.496094 314.792969 167.804688 315.480469 167.164062 316.21875 C 166.523438 316.953125 165.9375 317.730469 165.40625 318.550781 C 164.878906 319.375 164.410156 320.226562 164 321.113281 L 159.390625 331.175781 C 157.605469 335.070312 154.304688 337.273438 151.394531 336.496094 L 133.132812 331.601562 C 130.226562 330.824219 128.464844 327.269531 128.867188 323 L 129.90625 312.027344 C 129.996094 311.054688 130.019531 310.078125 129.96875 309.101562 C 129.917969 308.125 129.800781 307.15625 129.613281 306.195312 C 129.425781 305.238281 129.171875 304.296875 128.847656 303.371094 C 128.527344 302.449219 128.140625 301.554688 127.6875 300.683594 C 127.238281 299.816406 126.730469 298.984375 126.160156 298.191406 C 125.589844 297.394531 124.96875 296.644531 124.289062 295.9375 C 123.613281 295.234375 122.890625 294.578125 122.121094 293.976562 C 121.351562 293.375 120.539062 292.828125 119.691406 292.34375 L 119.464844 292.210938 C 118.621094 291.71875 117.746094 291.289062 116.839844 290.925781 C 115.929688 290.558594 115.003906 290.257812 114.054688 290.023438 C 113.101562 289.792969 112.140625 289.625 111.167969 289.53125 C 110.195312 289.433594 109.21875 289.410156 108.242188 289.453125 C 107.265625 289.496094 106.296875 289.609375 105.335938 289.792969 C 104.375 289.976562 103.433594 290.226562 102.507812 290.542969 C 101.582031 290.863281 100.683594 291.242188 99.816406 291.691406 C 98.945312 292.136719 98.109375 292.640625 97.3125 293.207031 L 88.328125 299.59375 C 88.003906 299.824219 87.679688 300.03125 87.355469 300.222656 L 41.296875 334.609375 L 124.40625 251.5 C 160.910156 282.53125 216.757812 279.738281 249.785156 243.136719 C 280.101562 209.542969 280.675781 158.644531 251.507812 124.398438 Z M 298.695312 77.210938 "/><g clip-rule="nonzero" clip-path="url(#27913a77b3)"><path style=" stroke:none;fill-rule:nonzero;fill:#f7931e;fill-opacity:1;" d="M 324.628906 30.621094 L 241.175781 114.070312 C 204.671875 83.039062 148.824219 85.832031 115.792969 122.433594 C 85.480469 156.027344 84.90625 206.929688 114.074219 241.175781 L 66.886719 288.363281 L 65.367188 286.839844 C 63.234375 284.710938 63.488281 280.753906 65.972656 277.257812 L 72.363281 268.273438 C 72.925781 267.472656 73.433594 266.640625 73.878906 265.769531 C 74.324219 264.898438 74.707031 264 75.027344 263.078125 C 75.34375 262.152344 75.59375 261.207031 75.777344 260.246094 C 75.957031 259.285156 76.070312 258.316406 76.117188 257.339844 C 76.160156 256.363281 76.132812 255.390625 76.039062 254.414062 C 75.941406 253.441406 75.777344 252.480469 75.542969 251.53125 C 75.3125 250.582031 75.011719 249.652344 74.644531 248.746094 C 74.277344 247.839844 73.851562 246.964844 73.359375 246.117188 L 73.226562 245.890625 C 72.738281 245.042969 72.195312 244.234375 71.59375 243.464844 C 70.988281 242.695312 70.335938 241.96875 69.628906 241.292969 C 68.921875 240.617188 68.171875 239.992188 67.375 239.425781 C 66.582031 238.855469 65.75 238.347656 64.878906 237.894531 C 64.011719 237.445312 63.117188 237.058594 62.191406 236.738281 C 61.269531 236.414062 60.328125 236.160156 59.367188 235.972656 C 58.40625 235.785156 57.4375 235.667969 56.460938 235.621094 C 55.484375 235.570312 54.511719 235.589844 53.535156 235.683594 L 42.5625 236.722656 C 38.289062 237.125 34.738281 235.363281 33.960938 232.457031 L 29.066406 214.191406 C 28.289062 211.285156 30.484375 207.984375 34.382812 206.199219 L 44.445312 201.589844 C 45.335938 201.179688 46.1875 200.710938 47.007812 200.183594 C 47.828125 199.652344 48.609375 199.066406 49.34375 198.425781 C 50.082031 197.785156 50.769531 197.09375 51.40625 196.351562 C 52.042969 195.613281 52.625 194.832031 53.152344 194.007812 C 53.679688 193.1875 54.144531 192.328125 54.546875 191.441406 C 54.949219 190.550781 55.289062 189.636719 55.5625 188.699219 C 55.832031 187.761719 56.039062 186.808594 56.175781 185.839844 C 56.3125 184.875 56.378906 183.902344 56.375 182.925781 L 56.375 182.664062 C 56.378906 181.6875 56.3125 180.714844 56.175781 179.75 C 56.039062 178.78125 55.832031 177.828125 55.5625 176.890625 C 55.289062 175.953125 54.949219 175.039062 54.546875 174.152344 C 54.144531 173.261719 53.679688 172.40625 53.152344 171.582031 C 52.625 170.757812 52.042969 169.976562 51.40625 169.238281 C 50.769531 168.496094 50.082031 167.808594 49.34375 167.164062 C 48.609375 166.523438 47.828125 165.9375 47.007812 165.410156 C 46.1875 164.878906 45.335938 164.410156 44.445312 164.003906 L 34.382812 159.394531 C 30.488281 157.609375 28.289062 154.304688 29.066406 151.398438 L 33.964844 133.113281 C 34.742188 130.207031 38.296875 128.445312 42.566406 128.851562 L 53.539062 129.890625 C 54.511719 129.980469 55.488281 130 56.464844 129.949219 C 57.441406 129.902344 58.410156 129.78125 59.371094 129.59375 C 60.328125 129.40625 61.269531 129.152344 62.195312 128.832031 C 63.117188 128.507812 64.011719 128.121094 64.882812 127.671875 C 65.75 127.222656 66.582031 126.710938 67.375 126.140625 C 68.171875 125.574219 68.921875 124.949219 69.628906 124.273438 C 70.332031 123.597656 70.988281 122.871094 71.589844 122.101562 C 72.191406 121.332031 72.738281 120.523438 73.222656 119.675781 L 73.355469 119.449219 C 73.847656 118.601562 74.277344 117.726562 74.640625 116.820312 C 75.007812 115.914062 75.308594 114.984375 75.542969 114.035156 C 75.773438 113.085938 75.9375 112.125 76.035156 111.152344 C 76.128906 110.179688 76.15625 109.203125 76.113281 108.226562 C 76.070312 107.25 75.957031 106.28125 75.773438 105.320312 C 75.589844 104.363281 75.339844 103.417969 75.023438 102.492188 C 74.707031 101.570312 74.324219 100.671875 73.878906 99.800781 C 73.433594 98.929688 72.925781 98.097656 72.363281 97.300781 L 65.976562 88.316406 C 63.488281 84.816406 63.238281 80.859375 65.367188 78.730469 L 78.738281 65.359375 C 80.867188 63.230469 84.824219 63.484375 88.320312 65.96875 L 97.304688 72.355469 C 98.105469 72.921875 98.9375 73.425781 99.808594 73.875 C 100.679688 74.320312 101.574219 74.703125 102.5 75.019531 C 103.425781 75.335938 104.367188 75.585938 105.328125 75.769531 C 106.289062 75.953125 107.257812 76.066406 108.238281 76.109375 C 109.214844 76.152344 110.1875 76.128906 111.160156 76.03125 C 112.136719 75.9375 113.097656 75.773438 114.046875 75.539062 C 114.996094 75.304688 115.925781 75.003906 116.832031 74.640625 C 117.738281 74.273438 118.613281 73.84375 119.460938 73.351562 L 119.6875 73.21875 C 120.535156 72.734375 121.34375 72.1875 122.113281 71.585938 C 122.882812 70.984375 123.605469 70.328125 124.285156 69.625 C 124.960938 68.917969 125.582031 68.167969 126.152344 67.371094 C 126.722656 66.578125 127.234375 65.746094 127.683594 64.878906 C 128.132812 64.011719 128.519531 63.113281 128.84375 62.191406 C 129.164062 61.269531 129.417969 60.328125 129.605469 59.367188 C 129.792969 58.40625 129.914062 57.4375 129.960938 56.460938 C 130.011719 55.484375 129.992188 54.511719 129.898438 53.535156 L 128.863281 42.5625 C 128.457031 38.289062 130.21875 34.738281 133.125 33.960938 L 151.390625 29.066406 C 154.296875 28.289062 157.601562 30.484375 159.386719 34.382812 L 163.992188 44.445312 C 164.402344 45.335938 164.871094 46.1875 165.402344 47.007812 C 165.929688 47.828125 166.515625 48.609375 167.15625 49.34375 C 167.800781 50.082031 168.488281 50.769531 169.230469 51.40625 C 169.96875 52.042969 170.75 52.625 171.574219 53.152344 C 172.394531 53.679688 173.253906 54.144531 174.140625 54.546875 C 175.03125 54.949219 175.945312 55.289062 176.882812 55.5625 C 177.820312 55.832031 178.773438 56.039062 179.742188 56.175781 C 180.707031 56.3125 181.679688 56.378906 182.65625 56.375 L 182.917969 56.375 C 183.894531 56.378906 184.867188 56.3125 185.832031 56.175781 C 186.800781 56.039062 187.753906 55.832031 188.691406 55.5625 C 189.628906 55.289062 190.542969 54.949219 191.433594 54.546875 C 192.320312 54.144531 193.179688 53.679688 194 53.152344 C 194.824219 52.625 195.605469 52.042969 196.34375 51.40625 C 197.085938 50.769531 197.777344 50.082031 198.417969 49.34375 C 199.058594 48.609375 199.644531 47.828125 200.171875 47.007812 C 200.703125 46.1875 201.171875 45.335938 201.582031 44.445312 L 206.1875 34.382812 C 207.972656 30.488281 211.277344 28.289062 214.183594 29.066406 L 232.457031 33.957031 C 235.363281 34.734375 237.125 38.289062 236.722656 42.558594 L 235.683594 53.53125 C 235.59375 54.503906 235.570312 55.480469 235.621094 56.457031 C 235.667969 57.433594 235.789062 58.402344 235.976562 59.363281 C 236.164062 60.320312 236.417969 61.261719 236.742188 62.1875 C 237.0625 63.109375 237.449219 64.003906 237.898438 64.875 C 238.351562 65.742188 238.859375 66.574219 239.429688 67.367188 C 240 68.164062 240.621094 68.914062 241.296875 69.621094 C 241.976562 70.324219 242.699219 70.980469 243.46875 71.582031 C 244.238281 72.183594 245.046875 72.730469 245.898438 73.214844 L 246.121094 73.347656 C 246.96875 73.839844 247.84375 74.269531 248.75 74.632812 C 249.65625 75 250.585938 75.300781 251.535156 75.535156 C 252.484375 75.765625 253.445312 75.929688 254.421875 76.027344 C 255.394531 76.121094 256.367188 76.148438 257.347656 76.105469 C 258.324219 76.058594 259.292969 75.945312 260.253906 75.765625 C 261.214844 75.582031 262.15625 75.332031 263.082031 75.015625 C 264.007812 74.695312 264.902344 74.3125 265.773438 73.867188 C 266.644531 73.421875 267.480469 72.917969 268.277344 72.351562 L 277.261719 65.964844 C 277.324219 65.917969 277.386719 65.875 277.453125 65.832031 Z M 324.628906 30.621094 "/></g><g style="fill:#000000;fill-opacity:1;"><g transform="translate(290.297359, 188.516925)"><path style="stroke:none" d="M 3.5625 0.171875 C 2.707031 0.171875 2.039062 -0.0507812 1.5625 -0.5 C 1.09375 -0.945312 0.859375 -1.582031 0.859375 -2.40625 C 0.859375 -2.914062 0.960938 -3.34375 1.171875 -3.6875 C 1.378906 -4.039062 1.703125 -4.328125 2.140625 -4.546875 C 2.585938 -4.773438 3.171875 -4.945312 3.890625 -5.0625 C 4.515625 -5.164062 4.988281 -5.28125 5.3125 -5.40625 C 5.632812 -5.539062 5.851562 -5.6875 5.96875 -5.84375 C 6.082031 -6.007812 6.140625 -6.21875 6.140625 -6.46875 C 6.140625 -6.851562 6.003906 -7.148438 5.734375 -7.359375 C 5.460938 -7.566406 5.03125 -7.671875 4.4375 -7.671875 C 3.882812 -7.671875 3.40625 -7.5625 3 -7.34375 C 2.601562 -7.132812 2.238281 -6.816406 1.90625 -6.390625 L 1.75 -6.390625 L 1.125 -7.265625 C 1.488281 -7.734375 1.953125 -8.101562 2.515625 -8.375 C 3.078125 -8.644531 3.71875 -8.78125 4.4375 -8.78125 C 5.457031 -8.78125 6.207031 -8.554688 6.6875 -8.109375 C 7.164062 -7.671875 7.40625 -7.054688 7.40625 -6.265625 L 7.40625 -1.703125 C 7.40625 -1.222656 7.609375 -0.984375 8.015625 -0.984375 C 8.148438 -0.984375 8.28125 -1.003906 8.40625 -1.046875 L 8.515625 -1.015625 L 8.671875 -0.140625 C 8.578125 -0.078125 8.453125 -0.03125 8.296875 0 C 8.140625 0.0390625 7.984375 0.0625 7.828125 0.0625 C 7.347656 0.0625 6.988281 -0.0390625 6.75 -0.25 C 6.507812 -0.457031 6.351562 -0.765625 6.28125 -1.171875 L 6.125 -1.1875 C 5.875 -0.738281 5.539062 -0.398438 5.125 -0.171875 C 4.707031 0.0546875 4.1875 0.171875 3.5625 0.171875 Z M 3.84375 -0.859375 C 4.320312 -0.859375 4.734375 -0.96875 5.078125 -1.1875 C 5.429688 -1.40625 5.703125 -1.710938 5.890625 -2.109375 C 6.078125 -2.515625 6.171875 -2.984375 6.171875 -3.515625 L 6.171875 -4.609375 L 6.03125 -4.640625 C 5.832031 -4.503906 5.59375 -4.390625 5.3125 -4.296875 C 5.039062 -4.203125 4.660156 -4.117188 4.171875 -4.046875 C 3.671875 -3.984375 3.269531 -3.878906 2.96875 -3.734375 C 2.675781 -3.597656 2.46875 -3.421875 2.34375 -3.203125 C 2.21875 -2.984375 2.15625 -2.71875 2.15625 -2.40625 C 2.15625 -1.894531 2.300781 -1.507812 2.59375 -1.25 C 2.894531 -0.988281 3.3125 -0.859375 3.84375 -0.859375 Z M 3.84375 -0.859375 "/></g></g></g></svg>