<svg xmlns="http://www.w3.org/2000/svg" xmlns:xlink="http://www.w3.org/1999/xlink" width="500" zoomAndPan="magnify" viewBox="0 0 375 374.999991" height="500" preserveAspectRatio="xMidYMid meet" version="1.2"><defs><clipPath id="716ac0f0aa"><path d="M 4 25.25 L 370 25.25 L 370 309 L 4 309 Z M 4 25.25 "/></clipPath><clipPath id="95f5a8fd43"><path d="M 0 299 L 375 299 L 375 311.75 L 0 311.75 Z M 0 299 "/></clipPath></defs><g id="b69c4ddd25"><g clip-rule="nonzero" clip-path="url(#716ac0f0aa)"><path style=" stroke:none;fill-rule:nonzero;fill:#030405;fill-opacity:1;" d="M 5.109375 307.765625 C 5.519531 307.902344 6.070312 307.902344 6.484375 307.902344 C 17.195312 305.429688 28.046875 303.367188 39.03125 301.71875 C 44.390625 300.621094 49.882812 299.660156 55.375 298.832031 C 56.199219 298.695312 57.160156 298.558594 58.261719 298.285156 C 62.242188 297.324219 66.226562 296.636719 70.210938 295.535156 C 74.878906 294.160156 82.296875 292.652344 92.734375 290.863281 C 93.28125 290.726562 93.695312 290.589844 94.105469 290.316406 C 94.105469 290.316406 94.105469 290.453125 94.105469 290.589844 L 94.105469 290.726562 C 94.105469 290.863281 94.105469 290.863281 94.246094 290.863281 L 149.042969 286.878906 C 179.535156 284.679688 209.886719 285.09375 240.375 287.980469 C 255.621094 289.078125 268.53125 290.039062 279.109375 291 C 283.226562 291.414062 287.898438 292.652344 291.605469 293.335938 C 299.433594 294.710938 307.539062 296.910156 314.953125 298.148438 C 321.820312 299.382812 328.960938 300.894531 335.28125 301.996094 C 340.773438 302.957031 346.269531 303.78125 351.761719 304.605469 C 354.234375 305.15625 356.570312 305.703125 359.039062 305.980469 C 362.199219 306.390625 365.359375 307.492188 368.65625 307.902344 C 370.164062 308.039062 370.164062 307.902344 368.792969 307.351562 L 353.273438 301.03125 C 346.953125 298.695312 340.636719 296.359375 334.320312 293.886719 C 327.726562 291.414062 320.449219 288.941406 313.582031 286.328125 C 307.125 283.992188 298.609375 281.246094 287.761719 278.359375 C 287.484375 278.359375 287.347656 278.085938 287.347656 277.949219 L 287.484375 269.015625 C 287.347656 241.671875 287.210938 214.464844 287.210938 187.121094 C 287.210938 167.058594 286.9375 146.996094 287.074219 126.933594 C 287.074219 124.871094 287.210938 122.8125 287.347656 120.886719 C 287.347656 120.476562 287.074219 120.199219 286.796875 120.199219 C 285.699219 120.0625 285.011719 118.964844 284.328125 118.550781 C 278.558594 114.429688 272.652344 110.308594 267.019531 105.773438 C 264.410156 103.710938 261.527344 102.0625 258.917969 100.140625 C 258.507812 99.863281 258.367188 99.316406 258.507812 98.902344 L 258.917969 97.941406 C 259.054688 97.527344 259.332031 97.390625 259.742188 97.664062 C 268.257812 103.574219 276.359375 109.757812 284.464844 116.351562 C 285.011719 116.765625 285.289062 116.628906 285.425781 115.941406 L 285.835938 113.742188 C 285.976562 113.191406 285.699219 112.644531 285.289062 112.367188 L 256.859375 90.382812 C 256.71875 90.246094 256.582031 90.109375 256.582031 89.96875 L 256.445312 89.695312 C 256.308594 89.558594 256.171875 89.421875 256.035156 89.558594 C 252.050781 91.480469 248.066406 93.132812 243.808594 94.230469 L 241.75 94.917969 L 241.613281 88.320312 C 242.164062 86.808594 242.164062 85.710938 241.476562 85.023438 C 241.199219 84.613281 240.925781 84.335938 240.515625 84.0625 C 218.265625 66.75 196.839844 48.199219 174.863281 30.472656 C 172.804688 28.824219 170.882812 27.035156 168.957031 25.25 C 168.820312 25.25 168.820312 25.25 168.683594 25.386719 C 167.3125 28.136719 166.210938 31.433594 165.113281 33.90625 C 161.265625 42.015625 157.285156 50.121094 153.300781 58.089844 C 152.890625 58.777344 152.476562 60.289062 152.066406 62.625 C 152.066406 62.902344 152.066406 63.039062 152.203125 63.3125 C 153.027344 64.6875 153.300781 66.199219 153.300781 67.710938 C 153.300781 68.261719 153.578125 68.398438 153.988281 68.121094 L 154.675781 67.847656 C 155.222656 67.710938 155.5 67.296875 155.636719 66.75 C 155.773438 65.785156 155.910156 65.238281 156.046875 64.960938 C 159.894531 58.914062 163.601562 52.871094 167.171875 46.6875 C 167.859375 45.449219 168.820312 44.214844 169.78125 43.25 C 170.332031 42.703125 171.019531 42.703125 171.707031 43.113281 C 192.582031 59.601562 213.183594 75.816406 233.511719 91.757812 C 236.394531 94.09375 239.414062 96.015625 242.574219 97.527344 C 242.847656 97.664062 242.847656 97.804688 242.847656 98.078125 L 242.847656 267.777344 C 242.847656 267.917969 242.710938 268.054688 242.574219 268.054688 L 231.585938 265.71875 C 231.449219 265.71875 231.3125 265.582031 231.3125 265.304688 L 231.3125 242.082031 C 231.3125 241.945312 231.175781 241.671875 230.898438 241.671875 L 222.796875 240.433594 C 222.246094 240.296875 222.109375 240.570312 222.523438 240.984375 C 223.210938 241.945312 223.621094 243.183594 223.621094 244.695312 C 223.621094 250.464844 223.484375 256.375 223.347656 262.144531 C 223.347656 262.558594 223.484375 263.105469 223.621094 263.792969 C 223.757812 264.207031 223.621094 264.34375 223.210938 264.207031 L 221.972656 264.070312 C 221.5625 264.070312 221.421875 263.792969 221.421875 263.519531 L 221.148438 240.570312 C 221.148438 240.296875 221.011719 240.160156 220.875 240.160156 L 213.183594 238.234375 C 212.910156 238.234375 212.769531 238.234375 212.769531 238.511719 L 212.769531 262.144531 C 212.769531 262.558594 212.632812 262.695312 212.222656 262.558594 L 211.121094 262.144531 C 210.847656 262.007812 210.710938 261.871094 210.710938 261.597656 L 210.710938 237.960938 C 210.710938 237.824219 210.574219 237.6875 210.4375 237.550781 L 203.570312 236.175781 C 203.570312 236.175781 203.570312 236.175781 203.433594 236.175781 C 203.15625 236.175781 203.019531 236.3125 203.019531 236.585938 L 202.882812 260.496094 C 202.882812 260.769531 202.746094 260.910156 202.46875 260.910156 L 201.921875 260.910156 C 201.644531 260.910156 201.507812 260.632812 201.507812 260.496094 L 201.507812 236.175781 C 201.507812 236.039062 201.371094 235.898438 201.234375 235.898438 L 194.917969 234.25 C 194.777344 234.25 194.640625 234.25 194.640625 234.386719 L 194.777344 259.671875 C 194.777344 259.945312 194.503906 260.085938 194.230469 260.085938 L 185.988281 258.847656 C 185.300781 258.710938 184.753906 258.710938 184.066406 258.847656 L 172.390625 260.359375 C 172.390625 260.359375 172.390625 260.359375 172.253906 260.359375 C 171.980469 260.359375 171.707031 260.085938 171.707031 259.808594 C 172.117188 235.761719 171.566406 211.992188 171.980469 187.945312 C 171.980469 183.683594 172.117188 179.425781 171.980469 175.027344 C 171.84375 157.578125 171.707031 140.125 171.84375 122.675781 C 171.84375 115.941406 171.707031 107.285156 171.84375 99.453125 C 171.980469 90.933594 171.980469 83.101562 171.84375 73.894531 C 171.84375 68.671875 171.980469 63.3125 171.84375 58.230469 C 171.707031 53.417969 171.84375 49.023438 171.019531 44.214844 C 171.019531 44.214844 171.019531 44.074219 170.882812 44.074219 C 170.746094 43.9375 170.605469 44.074219 170.605469 44.214844 C 168.957031 46.6875 167.449219 49.296875 165.9375 52.046875 C 164.699219 54.519531 163.054688 56.71875 161.679688 59.191406 C 160.992188 60.425781 158.65625 64 158.382812 65.785156 C 158.109375 67.984375 158.109375 71.421875 158.246094 76.230469 C 158.382812 81.3125 158.519531 84.75 158.519531 86.671875 C 158.65625 106.183594 158.796875 125.558594 158.933594 144.933594 L 159.207031 178.875 L 159.070312 204.019531 L 158.933594 231.914062 C 159.070312 237.6875 158.933594 243.59375 158.65625 249.367188 C 158.65625 250.054688 158.246094 250.464844 158.246094 251.152344 C 160.03125 251.703125 161.953125 251.976562 163.878906 251.839844 C 164.152344 251.839844 164.152344 251.976562 164.152344 252.113281 L 164.015625 260.085938 C 164.015625 260.910156 163.601562 261.457031 162.777344 261.457031 L 153.164062 262.695312 C 153.027344 262.695312 152.890625 262.558594 152.890625 262.28125 L 153.164062 131.605469 C 153.164062 131.46875 153.164062 131.332031 153.164062 131.332031 L 153.4375 130.644531 C 153.578125 130.367188 153.4375 130.09375 153.164062 129.957031 L 132.289062 118.003906 C 132.152344 117.863281 132.011719 117.863281 131.738281 118.003906 C 125.695312 123.359375 120.203125 129.542969 114.847656 134.628906 C 109.078125 140.261719 101.796875 147.546875 94.792969 153.589844 C 94.65625 153.730469 94.519531 153.867188 94.519531 154.140625 L 94.246094 169.804688 C 94.246094 170.628906 94.519531 170.769531 95.070312 170.082031 C 97.953125 166.644531 101.113281 163.347656 106.878906 158.675781 C 107.839844 157.851562 108.664062 157.164062 109.214844 156.339844 C 110.3125 155.101562 111.550781 154.554688 112.511719 153.589844 C 117.042969 149.605469 121.574219 145.621094 126.382812 141.363281 C 126.65625 141.085938 127.070312 141.085938 127.207031 141.5 C 128.441406 143.699219 125.96875 145.621094 124.460938 146.996094 C 116.769531 153.867188 109.078125 160.597656 101.25 167.332031 C 99.1875 169.117188 97.128906 171.042969 95.207031 173.105469 C 93.28125 175.027344 91.636719 176.125 89.300781 177.5 C 88.339844 178.050781 88.0625 178.738281 88.339844 179.835938 L 88.476562 180.25 C 88.75 181.210938 89.300781 181.484375 90.125 180.9375 C 97.816406 175.714844 104.40625 168.707031 111.824219 163.074219 C 112.921875 162.25 113.882812 161.148438 114.707031 160.460938 C 119.789062 157.300781 123.910156 153.867188 128.03125 150.292969 C 128.441406 150.019531 128.71875 149.742188 129.128906 149.605469 C 129.265625 149.605469 129.402344 149.46875 129.402344 149.605469 C 129.679688 149.605469 129.816406 149.882812 129.679688 150.15625 C 128.71875 153.730469 128.71875 156.890625 128.71875 160.460938 C 128.578125 168.292969 128.578125 175.988281 128.71875 183.820312 C 128.855469 188.082031 128.441406 193.164062 128.578125 197.835938 C 128.71875 200.449219 128.304688 203.332031 128.441406 206.082031 C 128.992188 223.53125 128.441406 241.121094 128.304688 258.574219 L 127.894531 268.054688 C 127.894531 268.191406 127.757812 268.328125 127.617188 268.328125 C 127.34375 268.328125 127.070312 268.464844 126.792969 268.464844 C 126.933594 265.304688 126.933594 258.847656 126.933594 258.574219 C 126.933594 257.199219 126.792969 255.6875 126.792969 254.3125 C 126.792969 237.273438 126.65625 220.371094 126.65625 203.332031 C 126.65625 187.394531 126.792969 171.453125 126.933594 155.378906 C 126.933594 155.378906 126.933594 155.242188 126.792969 155.242188 C 126.65625 155.101562 126.519531 155.101562 126.519531 155.242188 C 123.773438 157.851562 121.027344 160.324219 118.003906 162.933594 C 116.492188 164.171875 116.769531 165.820312 116.90625 167.746094 C 117.042969 171.867188 116.632812 177.636719 116.769531 182.722656 C 116.90625 184.644531 116.90625 186.433594 116.90625 187.804688 C 116.769531 211.851562 116.769531 246.617188 116.90625 271.078125 C 116.355469 271.214844 115.808594 271.351562 115.257812 271.488281 C 115.257812 245.105469 115.53125 207.867188 115.394531 181.625 C 115.394531 176.539062 115.394531 171.453125 115.667969 166.234375 C 115.667969 165.269531 115.257812 164.996094 114.433594 165.546875 C 111.824219 167.195312 109.351562 169.394531 106.878906 172.003906 C 106.605469 172.417969 106.46875 172.691406 106.46875 173.105469 C 106.605469 173.515625 106.605469 173.789062 106.605469 173.789062 C 106.46875 195.914062 106.332031 218.175781 106.46875 240.296875 L 106.46875 273.550781 C 106.054688 273.6875 105.78125 273.6875 105.367188 273.824219 L 105.230469 231.089844 L 105.507812 173.378906 C 105.507812 173.378906 105.507812 173.242188 105.507812 173.242188 C 105.367188 173.105469 105.230469 173.105469 105.09375 173.242188 L 92.457031 183.546875 C 92.183594 183.820312 92.046875 184.097656 92.046875 184.507812 L 92.183594 194.953125 L 92.183594 213.914062 L 92.320312 276.984375 C 92.320312 274.375 92.183594 267.09375 92.046875 267.09375 L 91.910156 267.09375 C 91.636719 266.953125 91.496094 275.75 91.359375 277.261719 C 91.085938 271.902344 90.949219 256.511719 91.085938 251.152344 C 91.359375 242.222656 91.085938 233.425781 91.222656 224.496094 C 91.222656 220.648438 91.222656 216.800781 91.222656 212.953125 L 91.496094 194.539062 L 91.496094 186.296875 C 91.496094 185.46875 91.085938 185.332031 90.398438 185.46875 L 90.125 185.609375 C 89.710938 185.746094 89.4375 186.15625 89.4375 186.707031 C 89.4375 212.539062 89.300781 249.367188 89.164062 275.199219 C 89.164062 275.613281 89.164062 276.4375 89.300781 277.808594 C 88.203125 278.085938 86.964844 278.359375 85.867188 278.773438 C 80.785156 280.285156 75.976562 281.382812 71.035156 283.03125 C 54.277344 288.664062 37.933594 294.710938 21.589844 301.308594 L 4.695312 308.039062 C 4.835938 307.628906 4.835938 307.628906 5.109375 307.765625 Z M 282.542969 133.804688 L 281.71875 135.453125 C 281.578125 135.589844 281.578125 135.867188 281.71875 136.003906 C 282.265625 137.652344 281.992188 139.164062 281.992188 140.675781 C 281.992188 178.1875 281.992188 215.699219 281.992188 253.214844 C 281.992188 258.710938 281.855469 268.191406 281.992188 275.75 C 281.992188 276.296875 281.71875 276.574219 281.167969 276.4375 L 275.261719 274.925781 C 275.125 274.925781 274.988281 274.785156 274.988281 274.648438 C 274.851562 249.230469 274.574219 223.808594 274.710938 198.386719 C 274.710938 194.265625 274.574219 189.730469 274.574219 185.882812 C 274.710938 163.757812 274.710938 146.171875 274.4375 132.980469 C 274.4375 131.742188 274.164062 130.09375 273.476562 127.894531 C 273.476562 127.621094 273.339844 127.484375 273.0625 127.484375 C 272.242188 127.207031 271.417969 127.347656 270.730469 127.894531 C 270.730469 127.894531 270.730469 127.894531 270.59375 128.03125 C 270.453125 128.308594 270.453125 128.71875 270.730469 128.859375 C 271.140625 129.132812 271.277344 129.542969 271.277344 130.230469 C 271.003906 175.027344 270.867188 219.824219 271.003906 264.617188 C 271.003906 267.503906 271.003906 270.527344 271.003906 273.550781 C 271.003906 273.6875 270.867188 273.824219 270.59375 273.824219 L 264.6875 272.449219 C 264.273438 272.3125 264 272.039062 264 271.625 C 264 255.136719 264 238.785156 263.863281 222.707031 C 263.863281 211.992188 263.863281 199.761719 264.136719 186.019531 C 264.136719 185.746094 264.136719 185.195312 264.136719 184.234375 C 264.136719 164.308594 264.136719 144.386719 264 124.324219 C 264 123.359375 264 122.535156 263.863281 121.574219 C 263.863281 121.4375 263.863281 121.300781 264 121.164062 C 264.273438 120.75 264.6875 120.75 265.097656 120.886719 L 281.855469 131.878906 C 282.816406 132.292969 282.953125 132.980469 282.542969 133.804688 Z M 258.644531 102.75 C 258.644531 102.613281 258.644531 102.613281 258.78125 102.476562 C 259.054688 102.199219 259.191406 102.199219 259.605469 102.476562 C 261.390625 103.988281 262.902344 105.496094 264.960938 106.734375 C 269.769531 109.621094 274.027344 113.46875 278.558594 116.628906 C 280.753906 118.140625 282.679688 120.339844 285.152344 121.851562 C 285.289062 121.988281 285.425781 122.125 285.425781 122.398438 L 285.289062 129.542969 C 285.289062 129.542969 285.289062 129.683594 285.289062 129.683594 C 285.152344 129.957031 284.875 130.09375 284.601562 129.957031 C 283.777344 129.683594 282.953125 129.132812 282.128906 128.71875 C 277.734375 125.835938 273.203125 123.085938 268.808594 120.199219 C 267.707031 119.515625 266.746094 118.550781 265.785156 117.589844 C 265.648438 117.453125 265.375 117.453125 265.234375 117.589844 L 264.550781 118.277344 C 264.410156 118.414062 264.136719 118.550781 264 118.550781 C 262.488281 118.414062 260.976562 118.6875 259.742188 119.375 C 259.742188 119.375 259.605469 119.375 259.605469 119.375 C 259.332031 119.375 259.054688 119.238281 259.054688 118.964844 C 258.09375 113.605469 258.507812 107.972656 258.644531 102.75 Z M 166.210938 139.4375 L 166.210938 72.519531 L 166.347656 62.761719 L 166.488281 62.761719 C 166.625 62.761719 166.625 62.761719 166.625 62.902344 L 166.761719 72.105469 L 166.898438 141.636719 C 167.035156 142.734375 167.035156 143.699219 167.035156 144.796875 C 167.035156 161.285156 167.035156 177.777344 167.035156 194.265625 C 167.035156 194.675781 167.035156 194.953125 167.171875 195.226562 C 167.171875 195.363281 167.3125 195.5 167.3125 195.777344 C 167.171875 205.667969 167.171875 215.5625 167.171875 225.320312 C 167.171875 232.738281 167.035156 240.023438 166.761719 247.441406 C 166.761719 248.265625 166.625 249.089844 166.347656 249.914062 C 166.210938 250.328125 166.210938 250.328125 166.210938 249.914062 Z M 142.589844 153.179688 C 142.589844 149.195312 142.589844 145.210938 142.726562 141.222656 C 142.726562 140.539062 142.863281 139.851562 143.136719 139.300781 C 143.277344 138.886719 143.414062 138.886719 143.550781 139.300781 C 143.824219 140.398438 144.101562 141.5 144.101562 142.875 C 144.101562 158.675781 144.101562 174.476562 143.960938 190.28125 C 143.960938 201.824219 143.960938 213.363281 144.101562 225.042969 C 144.101562 231.367188 143.960938 238.921875 143.960938 245.792969 C 144.101562 251.703125 144.101562 257.75 144.101562 263.65625 C 144.101562 263.65625 144.101562 263.792969 144.101562 263.792969 C 143.960938 263.933594 143.824219 264.070312 143.550781 263.933594 L 143.414062 263.792969 C 143 263.65625 142.726562 263.246094 142.726562 262.695312 C 142.453125 226.144531 142.453125 189.457031 142.589844 153.179688 Z M 128.304688 282.070312 C 135.035156 280.832031 141.902344 279.597656 148.769531 278.496094 C 158.65625 276.710938 168.957031 275.886719 178.984375 274.785156 C 182.007812 274.511719 185.027344 273.960938 188.050781 273.414062 C 189.148438 273.277344 191.894531 273.960938 193.132812 274.101562 C 200.960938 275.199219 208.511719 276.023438 216.480469 277.398438 C 228.152344 279.460938 240.101562 281.109375 251.5 283.582031 C 256.171875 284.542969 260.976562 285.230469 265.648438 286.742188 C 268.945312 287.703125 272.101562 288.117188 275.261719 289.351562 C 275.675781 289.488281 275.675781 289.628906 275.261719 289.488281 C 264.273438 288.390625 253.148438 287.152344 242.023438 286.054688 C 231.175781 284.957031 218.402344 284.132812 203.707031 283.582031 C 185.300781 283.03125 166.898438 283.304688 148.355469 284.679688 C 132.152344 285.78125 120.203125 286.878906 112.648438 287.839844 C 106.605469 288.664062 100.425781 289.351562 94.382812 290.039062 C 105.507812 286.742188 116.769531 284.132812 128.304688 282.070312 Z M 99.324219 179.5625 C 99.324219 179.148438 99.464844 178.738281 99.738281 178.460938 L 100.148438 177.914062 C 100.148438 177.914062 100.289062 177.777344 100.289062 177.777344 C 100.425781 177.777344 100.5625 177.914062 100.5625 178.050781 L 100.425781 229.578125 L 100.425781 274.511719 C 100.011719 274.648438 99.738281 274.648438 99.324219 274.785156 L 99.464844 229.992188 Z M 99.324219 179.5625 "/></g><path style=" stroke:none;fill-rule:nonzero;fill:#030405;fill-opacity:1;" d="M 174.726562 52.046875 L 174.453125 52.046875 C 174.316406 52.046875 174.316406 52.046875 174.316406 52.183594 C 174.179688 57.265625 173.902344 62.488281 174.039062 67.574219 C 174.179688 94.503906 174.316406 121.300781 174.589844 148.230469 C 174.589844 151.941406 174.453125 157.300781 174.726562 161.972656 C 174.863281 163.484375 174.316406 164.859375 174.453125 166.371094 C 174.589844 168.84375 174.726562 170.90625 174.726562 172.417969 C 174.726562 179.5625 174.589844 191.105469 174.453125 207.042969 C 174.453125 211.714844 174.863281 217.210938 174.726562 222.433594 C 174.589844 232.878906 174.589844 240.160156 174.453125 249.230469 C 174.453125 249.503906 174.589844 249.640625 174.726562 249.777344 L 175 249.914062 C 175.277344 250.054688 175.414062 249.914062 175.414062 249.640625 C 175.277344 238.511719 175.550781 227.519531 175.414062 216.523438 C 175.277344 200.449219 175.824219 184.234375 175.6875 168.15625 C 175.550781 151.667969 175.550781 135.179688 175.550781 118.6875 C 175.550781 107.421875 175.550781 96.566406 175.277344 84.75 C 175.140625 79.253906 175.140625 73.617188 175.140625 68.121094 C 175.140625 62.902344 175.140625 57.816406 175.140625 52.59375 C 175.140625 52.320312 175 52.183594 174.726562 52.046875 Z M 174.726562 52.046875 "/><path style=" stroke:none;fill-rule:nonzero;fill:#030405;fill-opacity:1;" d="M 158.109375 143.835938 C 158.109375 121.574219 157.972656 99.3125 157.835938 76.917969 C 157.835938 73.894531 157.421875 71.144531 156.871094 68.257812 C 156.871094 68.121094 156.734375 67.984375 156.734375 68.257812 C 156.460938 68.945312 156.324219 69.496094 156.324219 70.183594 C 156.1875 93.542969 156.324219 116.765625 156.871094 140.125 C 157.421875 165.410156 156.597656 205.121094 156.734375 251.289062 C 156.734375 251.566406 156.871094 251.703125 157.148438 251.703125 C 157.835938 251.839844 158.382812 251.703125 158.519531 251.289062 L 158.65625 229.304688 C 158.65625 221.472656 158.519531 213.640625 158.65625 205.667969 C 158.65625 204.433594 158.65625 203.058594 158.65625 201.824219 C 158.246094 193.441406 158.519531 184.785156 158.796875 176.402344 C 158.933594 173.378906 158.519531 170.082031 158.519531 167.332031 C 158.246094 159.5 158.246094 151.667969 158.109375 143.835938 Z M 158.109375 143.835938 "/><path style=" stroke:none;fill-rule:nonzero;fill:#030405;fill-opacity:1;" d="M 201.644531 83.785156 C 201.644531 83.648438 201.644531 83.648438 201.507812 83.511719 C 199.585938 81.175781 196.839844 79.527344 194.640625 77.464844 C 194.640625 77.464844 194.503906 77.464844 194.503906 77.464844 C 194.367188 77.464844 194.367188 77.605469 194.367188 77.605469 L 194.367188 88.320312 C 194.367188 88.460938 194.367188 88.597656 194.503906 88.597656 L 201.234375 92.855469 C 201.234375 92.855469 201.371094 92.855469 201.371094 92.71875 L 201.371094 84.199219 C 201.371094 84.0625 201.371094 83.925781 201.507812 83.925781 C 201.644531 83.925781 201.644531 83.785156 201.644531 83.785156 Z M 201.644531 83.785156 "/><path style=" stroke:none;fill-rule:nonzero;fill:#030405;fill-opacity:1;" d="M 203.84375 95.328125 L 210.300781 99.589844 C 210.300781 99.589844 210.300781 99.589844 210.4375 99.589844 C 210.574219 99.589844 210.574219 99.453125 210.710938 99.453125 L 211.121094 91.757812 C 211.121094 91.207031 210.847656 90.65625 210.4375 90.246094 L 202.882812 84.0625 C 202.746094 84.0625 202.746094 83.925781 202.609375 84.0625 C 202.46875 84.0625 202.46875 84.335938 202.46875 84.472656 C 202.46875 84.613281 202.609375 84.613281 202.609375 84.613281 C 202.609375 84.613281 202.609375 84.613281 202.609375 84.75 C 202.609375 84.886719 202.609375 85.023438 202.609375 85.160156 C 202.609375 85.296875 202.609375 85.574219 202.609375 85.710938 C 203.570312 88.320312 203.433594 91.757812 203.433594 94.640625 C 203.433594 94.917969 203.570312 95.191406 203.84375 95.328125 Z M 203.84375 95.328125 "/><path style=" stroke:none;fill-rule:nonzero;fill:#030405;fill-opacity:1;" d="M 194.367188 91.207031 C 194.367188 91.34375 194.503906 91.480469 194.640625 91.757812 C 196.152344 93.679688 197.800781 95.328125 199.585938 96.703125 C 204.253906 100.277344 208.789062 103.988281 213.734375 107.285156 C 218.128906 110.308594 224.582031 113.742188 229.800781 117.589844 C 229.800781 117.589844 229.800781 117.589844 229.9375 117.589844 L 230.078125 117.453125 C 230.078125 117.316406 230.078125 117.316406 230.078125 117.316406 C 228.839844 116.214844 225.957031 114.292969 221.421875 111.269531 C 213.871094 106.183594 205.078125 99.726562 195.054688 91.621094 C 194.917969 91.480469 194.917969 91.480469 194.777344 91.480469 C 194.777344 91.480469 194.777344 91.480469 194.640625 91.480469 C 194.503906 91.207031 194.503906 91.207031 194.367188 91.207031 C 194.367188 91.070312 194.367188 91.070312 194.367188 91.207031 Z M 194.367188 91.207031 "/><path style=" stroke:none;fill-rule:nonzero;fill:#030405;fill-opacity:1;" d="M 219.226562 105.773438 C 219.5 105.773438 219.636719 105.636719 219.636719 105.359375 C 219.777344 103.574219 219.777344 101.789062 219.777344 100.140625 C 219.777344 98.214844 219.914062 97.253906 218.265625 96.152344 C 216.480469 94.917969 214.554688 93.679688 212.632812 92.445312 C 212.632812 92.445312 212.632812 92.445312 212.496094 92.445312 C 212.359375 92.445312 212.359375 92.582031 212.359375 92.582031 L 212.222656 100.414062 C 212.222656 100.550781 212.222656 100.6875 212.359375 100.824219 C 214.007812 102.0625 217.304688 105.222656 219.226562 105.773438 Z M 219.226562 105.773438 "/><path style=" stroke:none;fill-rule:nonzero;fill:#030405;fill-opacity:1;" d="M 201.785156 103.300781 C 201.785156 102.886719 201.507812 102.476562 201.234375 102.199219 L 195.328125 97.804688 C 194.917969 97.527344 194.640625 97.664062 194.640625 98.078125 C 194.230469 100.964844 194.230469 103.847656 194.503906 106.734375 C 194.503906 107.007812 194.640625 107.148438 194.777344 107.285156 L 201.371094 111.820312 C 201.371094 111.820312 201.507812 111.820312 201.507812 111.820312 C 201.644531 111.820312 201.785156 111.679688 201.785156 111.542969 Z M 201.785156 103.300781 "/><path style=" stroke:none;fill-rule:nonzero;fill:#030405;fill-opacity:1;" d="M 227.878906 111.957031 C 228.152344 111.957031 228.289062 111.820312 228.289062 111.542969 L 228.703125 103.988281 C 228.703125 103.847656 228.703125 103.710938 228.566406 103.574219 L 222.109375 98.902344 C 222.109375 98.902344 221.972656 98.765625 221.835938 98.765625 C 221.5625 98.765625 221.421875 98.902344 221.421875 99.175781 L 221.148438 106.597656 C 221.148438 106.734375 221.148438 106.871094 221.285156 106.871094 L 227.464844 111.542969 C 227.742188 111.957031 227.742188 111.957031 227.878906 111.957031 Z M 227.878906 111.957031 "/><path style=" stroke:none;fill-rule:nonzero;fill:#030405;fill-opacity:1;" d="M 203.980469 113.332031 L 210.023438 117.175781 C 210.4375 117.453125 210.710938 117.316406 210.710938 116.765625 L 210.984375 109.207031 C 210.984375 108.933594 210.847656 108.796875 210.710938 108.660156 L 204.394531 104.398438 C 204.394531 104.398438 204.253906 104.398438 204.253906 104.398438 C 204.117188 104.398438 203.84375 104.535156 203.84375 104.8125 C 203.707031 107.421875 203.15625 110.308594 203.570312 112.78125 C 203.707031 112.917969 203.84375 113.054688 203.980469 113.332031 Z M 203.980469 113.332031 "/><path style=" stroke:none;fill-rule:nonzero;fill:#030405;fill-opacity:1;" d="M 231.722656 105.910156 C 231.722656 105.636719 231.585938 105.636719 231.3125 105.636719 C 231.039062 105.773438 230.898438 106.046875 230.898438 106.460938 C 230.761719 110.308594 230.898438 113.878906 231.175781 117.453125 C 231.3125 119.652344 231.585938 119.652344 231.863281 117.453125 C 232.136719 114.015625 232.546875 109.621094 231.722656 105.910156 Z M 231.722656 105.910156 "/><path style=" stroke:none;fill-rule:nonzero;fill:#030405;fill-opacity:1;" d="M 212.769531 118.828125 L 218.8125 123.222656 C 219.363281 123.636719 219.636719 123.5 219.636719 122.8125 L 219.636719 115.390625 C 219.636719 114.980469 219.363281 114.566406 218.953125 114.292969 L 212.632812 110.308594 C 212.632812 110.308594 212.496094 110.308594 212.359375 110.308594 C 212.222656 110.308594 211.945312 110.445312 212.085938 110.71875 L 212.496094 115.527344 Z M 212.769531 118.828125 "/><path style=" stroke:none;fill-rule:nonzero;fill:#030405;fill-opacity:1;" d="M 227.054688 128.582031 C 227.605469 128.996094 227.878906 128.859375 228.015625 128.171875 L 228.289062 120.613281 C 228.289062 120.339844 228.152344 119.925781 227.878906 119.789062 L 222.796875 116.492188 C 222.660156 116.351562 222.386719 116.351562 222.246094 116.492188 C 221.972656 116.765625 221.699219 117.039062 221.699219 117.589844 C 221.421875 119.652344 221.285156 121.710938 221.421875 123.773438 C 221.421875 124.046875 221.5625 124.1875 221.699219 124.324219 Z M 227.054688 128.582031 "/><path style=" stroke:none;fill-rule:nonzero;fill:#030405;fill-opacity:1;" d="M 195.328125 117.453125 C 195.328125 117.453125 195.191406 117.453125 195.191406 117.453125 C 195.054688 117.453125 194.917969 117.589844 194.917969 117.726562 L 194.917969 127.621094 C 194.917969 127.757812 194.917969 127.894531 195.054688 127.894531 L 201.234375 131.605469 C 201.234375 131.605469 201.371094 131.605469 201.371094 131.605469 C 201.507812 131.605469 201.644531 131.46875 201.644531 131.332031 L 202.058594 122.261719 C 202.058594 122.125 202.058594 122.125 201.921875 121.988281 Z M 195.328125 117.453125 "/><path style=" stroke:none;fill-rule:nonzero;fill:#030405;fill-opacity:1;" d="M 230.625 121.851562 L 231.039062 132.292969 C 231.039062 132.292969 231.039062 132.429688 231.039062 132.429688 L 231.449219 133.117188 C 231.449219 133.253906 231.585938 133.253906 231.722656 133.253906 C 231.863281 133.253906 232 133.117188 232 132.980469 L 232 123.222656 C 232 123.222656 232 123.085938 232 123.085938 L 231.3125 121.710938 C 231.3125 121.574219 231.175781 121.574219 231.039062 121.574219 C 230.761719 121.574219 230.625 121.710938 230.625 121.851562 Z M 230.625 121.851562 "/><path style=" stroke:none;fill-rule:nonzero;fill:#030405;fill-opacity:1;" d="M 210.984375 128.171875 C 208.652344 126.109375 206.179688 124.460938 203.570312 123.222656 C 203.019531 123.222656 202.882812 123.636719 203.15625 124.1875 C 203.707031 125.558594 203.570312 127.757812 203.433594 129.132812 L 203.570312 131.878906 C 203.570312 132.15625 203.707031 132.292969 203.84375 132.429688 C 205.21875 133.804688 206.726562 134.765625 208.511719 135.316406 C 209.335938 135.589844 209.75 136.140625 210.574219 136.550781 C 210.847656 136.691406 210.984375 136.691406 210.847656 136.277344 C 210.847656 135.726562 210.710938 135.179688 210.4375 134.765625 C 210.300781 134.492188 210.300781 134.355469 210.4375 134.078125 C 210.984375 132.566406 211.398438 130.917969 211.535156 129.269531 C 211.535156 128.859375 211.398438 128.445312 210.984375 128.171875 Z M 210.984375 128.171875 "/><path style=" stroke:none;fill-rule:nonzero;fill:#030405;fill-opacity:1;" d="M 212.222656 137.101562 C 212.222656 137.378906 212.359375 137.652344 212.632812 137.789062 L 219.777344 141.636719 C 219.777344 141.636719 219.914062 141.636719 219.914062 141.636719 C 220.050781 141.636719 220.1875 141.5 220.1875 141.363281 C 220.1875 139.164062 220.050781 136.964844 220.050781 134.765625 C 220.050781 132.292969 214.96875 130.230469 213.046875 129.269531 C 212.910156 129.269531 212.910156 129.269531 212.769531 129.269531 C 212.496094 129.269531 212.222656 129.542969 212.222656 129.820312 Z M 212.222656 137.101562 "/><path style=" stroke:none;fill-rule:nonzero;fill:#030405;fill-opacity:1;" d="M 194.503906 137.515625 L 201.371094 142.050781 C 201.371094 142.050781 201.507812 142.050781 201.507812 142.050781 C 201.644531 142.050781 201.785156 141.910156 201.785156 141.773438 L 201.644531 135.042969 C 201.644531 134.902344 201.644531 134.765625 201.507812 134.765625 L 194.917969 130.644531 C 194.917969 130.644531 194.777344 130.644531 194.777344 130.644531 C 194.640625 130.644531 194.503906 130.78125 194.367188 130.917969 L 194.230469 137.238281 C 194.367188 137.238281 194.367188 137.378906 194.503906 137.515625 Z M 194.503906 137.515625 "/><path style=" stroke:none;fill-rule:nonzero;fill:#030405;fill-opacity:1;" d="M 228.976562 141.636719 C 228.566406 140.949219 228.289062 140.261719 228.289062 139.4375 C 228.289062 138.886719 227.878906 138.339844 227.464844 138.203125 L 222.109375 135.316406 C 221.5625 135.042969 221.285156 135.179688 221.285156 135.867188 L 221.421875 142.1875 C 221.421875 142.460938 221.5625 142.597656 221.699219 142.734375 C 223.894531 144.246094 226.230469 145.484375 228.703125 146.308594 C 228.703125 146.308594 228.839844 146.308594 228.839844 146.308594 C 228.976562 146.308594 229.113281 146.035156 228.976562 145.894531 C 228.566406 144.660156 228.566406 143.421875 228.976562 142.1875 C 229.113281 142.050781 229.113281 141.773438 228.976562 141.636719 Z M 228.976562 141.636719 "/><path style=" stroke:none;fill-rule:nonzero;fill:#030405;fill-opacity:1;" d="M 203.570312 142.875 L 210.847656 146.722656 C 210.847656 146.722656 210.847656 146.722656 210.984375 146.722656 C 211.121094 146.722656 211.261719 146.582031 211.261719 146.445312 L 211.261719 139.714844 C 211.261719 139.574219 211.261719 139.574219 211.121094 139.574219 L 203.707031 135.179688 C 203.707031 135.179688 203.570312 135.179688 203.570312 135.179688 C 203.433594 135.179688 203.292969 135.316406 203.433594 135.453125 L 203.570312 142.597656 C 203.433594 142.734375 203.433594 142.875 203.570312 142.875 Z M 203.570312 142.875 "/><path style=" stroke:none;fill-rule:nonzero;fill:#030405;fill-opacity:1;" d="M 219.914062 144.933594 L 213.046875 141.085938 C 213.046875 141.085938 212.910156 141.085938 212.910156 141.085938 C 212.632812 141.085938 212.496094 141.222656 212.496094 141.5 L 212.222656 147.269531 C 212.222656 147.40625 212.359375 147.683594 212.496094 147.683594 L 219.914062 151.253906 C 219.914062 151.253906 220.050781 151.253906 220.1875 151.253906 C 220.460938 151.253906 220.597656 150.980469 220.597656 150.84375 L 220.324219 145.347656 C 220.1875 145.210938 220.050781 145.070312 219.914062 144.933594 Z M 219.914062 144.933594 "/><path style=" stroke:none;fill-rule:nonzero;fill:#030405;fill-opacity:1;" d="M 230.351562 142.050781 C 230.214844 147.683594 230.214844 152.355469 230.214844 156.066406 C 230.214844 156.890625 230.625 157.578125 231.3125 157.988281 C 231.449219 158.125 231.585938 158.125 231.585938 157.851562 C 231.863281 151.117188 232 146.171875 231.3125 141.910156 C 231.3125 141.773438 231.175781 141.636719 230.898438 141.636719 L 230.761719 141.636719 C 230.625 141.636719 230.488281 141.773438 230.351562 142.050781 Z M 230.351562 142.050781 "/><path style=" stroke:none;fill-rule:nonzero;fill:#030405;fill-opacity:1;" d="M 201.644531 157.988281 C 201.921875 157.988281 202.058594 157.851562 202.058594 157.578125 L 202.058594 150.84375 C 202.058594 150.429688 201.785156 150.15625 201.507812 150.019531 C 199.035156 149.058594 196.976562 147.683594 195.191406 145.894531 C 195.054688 145.757812 194.917969 145.757812 194.917969 146.035156 C 194.640625 148.644531 194.640625 151.117188 194.640625 153.730469 C 194.640625 156.339844 199.585938 157.300781 201.644531 157.988281 Z M 201.644531 157.988281 "/><path style=" stroke:none;fill-rule:nonzero;fill:#030405;fill-opacity:1;" d="M 227.328125 148.78125 L 222.386719 145.894531 C 222.246094 145.894531 222.246094 145.757812 222.109375 145.757812 C 221.699219 145.757812 221.421875 146.035156 221.421875 146.445312 L 221.421875 151.394531 C 221.421875 151.667969 221.5625 151.804688 221.699219 151.941406 C 222.933594 152.765625 223.210938 152.628906 223.894531 154.003906 C 224.03125 154.140625 224.171875 154.277344 224.308594 154.277344 L 227.742188 155.652344 C 227.878906 155.789062 228.015625 155.652344 228.015625 155.515625 L 228.015625 150.292969 C 228.152344 149.46875 227.878906 149.058594 227.328125 148.78125 Z M 227.328125 148.78125 "/><path style=" stroke:none;fill-rule:nonzero;fill:#030405;fill-opacity:1;" d="M 203.292969 158.949219 L 210.847656 162.25 C 210.847656 162.25 210.984375 162.25 210.984375 162.25 C 211.121094 162.25 211.261719 162.109375 211.261719 161.972656 L 211.261719 154.828125 C 211.261719 154.691406 211.261719 154.554688 211.121094 154.554688 L 203.707031 150.980469 C 203.707031 150.980469 203.570312 150.980469 203.570312 150.980469 C 203.433594 150.980469 203.292969 151.117188 203.292969 151.253906 L 203.15625 158.675781 C 203.15625 158.675781 203.292969 158.8125 203.292969 158.949219 Z M 203.292969 158.949219 "/><path style=" stroke:none;fill-rule:nonzero;fill:#030405;fill-opacity:1;" d="M 220.050781 158.675781 L 213.046875 155.515625 C 213.046875 155.515625 212.910156 155.515625 212.910156 155.515625 C 212.769531 155.515625 212.632812 155.652344 212.632812 155.789062 L 212.769531 163.074219 C 212.769531 163.210938 212.910156 163.347656 212.910156 163.347656 L 219.914062 166.507812 C 219.914062 166.507812 220.050781 166.507812 220.050781 166.507812 C 220.1875 166.507812 220.324219 166.371094 220.324219 166.234375 L 220.1875 158.949219 C 220.1875 158.8125 220.1875 158.8125 220.050781 158.675781 Z M 220.050781 158.675781 "/><path style=" stroke:none;fill-rule:nonzero;fill:#030405;fill-opacity:1;" d="M 194.917969 164.445312 C 196.425781 165.683594 199.449219 166.644531 201.371094 167.332031 C 201.507812 167.332031 201.507812 167.332031 201.507812 167.195312 L 201.507812 161.148438 C 201.507812 161.011719 201.371094 160.875 201.371094 160.875 L 195.191406 157.578125 C 195.191406 157.578125 195.054688 157.578125 195.054688 157.578125 C 194.917969 157.578125 194.777344 157.714844 194.777344 157.851562 C 195.054688 159.914062 194.640625 161.699219 194.640625 163.757812 C 194.640625 164.171875 194.640625 164.308594 194.917969 164.445312 Z M 194.917969 164.445312 "/><path style=" stroke:none;fill-rule:nonzero;fill:#030405;fill-opacity:1;" d="M 228.429688 163.074219 L 221.835938 159.773438 C 221.835938 159.773438 221.835938 159.773438 221.699219 159.773438 C 221.5625 159.773438 221.5625 159.914062 221.5625 159.914062 L 221.5625 167.195312 C 221.5625 167.332031 221.5625 167.332031 221.699219 167.332031 L 228.429688 170.492188 C 228.429688 170.492188 228.429688 170.492188 228.566406 170.492188 C 228.703125 170.492188 228.703125 170.355469 228.703125 170.355469 L 228.703125 163.210938 C 228.566406 163.210938 228.429688 163.074219 228.429688 163.074219 Z M 228.429688 163.074219 "/><path style=" stroke:none;fill-rule:nonzero;fill:#030405;fill-opacity:1;" d="M 202.882812 161.5625 L 202.882812 168.019531 C 202.882812 168.15625 202.882812 168.15625 203.019531 168.292969 L 210.847656 171.730469 C 210.847656 171.730469 210.847656 171.730469 210.984375 171.730469 C 211.121094 171.730469 211.261719 171.59375 211.261719 171.453125 L 211.261719 165.683594 C 211.261719 165.546875 211.261719 165.546875 211.121094 165.410156 L 203.292969 161.285156 C 203.292969 161.285156 203.15625 161.285156 203.15625 161.285156 C 203.019531 161.421875 202.882812 161.421875 202.882812 161.5625 Z M 202.882812 161.5625 "/><path style=" stroke:none;fill-rule:nonzero;fill:#030405;fill-opacity:1;" d="M 231.175781 181.898438 C 231.449219 181.898438 231.722656 177.636719 231.722656 172.417969 L 231.722656 164.722656 C 231.722656 164.585938 231.585938 164.445312 231.449219 164.445312 L 230.625 164.445312 C 230.488281 164.445312 230.351562 164.585938 230.351562 164.722656 L 230.351562 172.417969 C 230.351562 177.636719 230.488281 181.761719 230.761719 181.898438 Z M 231.175781 181.898438 "/><path style=" stroke:none;fill-rule:nonzero;fill:#030405;fill-opacity:1;" d="M 212.222656 172.140625 C 214.695312 173.789062 217.304688 175.027344 220.050781 176.125 C 220.324219 176.265625 220.324219 176.125 220.324219 175.851562 C 220.1875 174.339844 220.1875 172.691406 220.050781 171.179688 C 219.914062 168.292969 215.519531 166.78125 213.320312 166.371094 C 212.632812 166.234375 212.359375 166.507812 212.359375 167.058594 L 212.222656 171.042969 C 212.222656 171.179688 212.222656 171.316406 212.085938 171.453125 C 212.085938 171.453125 211.945312 171.59375 211.945312 171.59375 C 212.085938 172.003906 212.085938 172.140625 212.222656 172.140625 Z M 212.222656 172.140625 "/><path style=" stroke:none;fill-rule:nonzero;fill:#030405;fill-opacity:1;" d="M 221.5625 176.675781 L 227.605469 179.425781 C 227.605469 179.425781 227.742188 179.425781 227.742188 179.425781 C 228.015625 179.425781 228.152344 179.285156 228.152344 179.011719 L 228.289062 173.652344 C 228.289062 173.515625 228.152344 173.378906 228.015625 173.242188 L 221.972656 170.21875 C 221.972656 170.21875 221.835938 170.21875 221.835938 170.21875 C 221.5625 170.21875 221.421875 170.355469 221.421875 170.628906 L 221.285156 176.402344 C 221.285156 176.402344 221.421875 176.539062 221.5625 176.675781 Z M 221.5625 176.675781 "/><path style=" stroke:none;fill-rule:nonzero;fill:#030405;fill-opacity:1;" d="M 194.917969 180.796875 L 200.683594 183.273438 C 200.820312 183.273438 200.960938 183.273438 200.960938 183.273438 C 201.371094 183.273438 201.785156 182.859375 201.785156 182.449219 L 201.785156 176.539062 C 201.785156 175.988281 201.507812 175.578125 200.960938 175.300781 L 194.640625 172.277344 C 194.640625 172.277344 194.640625 172.277344 194.503906 172.277344 C 194.367188 172.277344 194.230469 172.417969 194.230469 172.417969 L 194.230469 179.699219 C 194.367188 180.25 194.640625 180.660156 194.917969 180.796875 Z M 194.917969 180.796875 "/><path style=" stroke:none;fill-rule:nonzero;fill:#030405;fill-opacity:1;" d="M 211.398438 185.609375 L 211.121094 180.386719 C 211.121094 179.972656 210.847656 179.5625 210.4375 179.425781 L 203.707031 176.402344 C 203.433594 176.265625 203.292969 176.402344 203.292969 176.675781 C 203.292969 178.738281 203.433594 180.660156 203.570312 182.722656 C 203.570312 183.273438 203.980469 183.683594 204.667969 184.097656 C 206.726562 185.195312 208.789062 185.882812 210.710938 186.296875 C 211.121094 186.433594 211.398438 186.15625 211.398438 185.609375 Z M 211.398438 185.609375 "/><path style=" stroke:none;fill-rule:nonzero;fill:#030405;fill-opacity:1;" d="M 220.1875 183.410156 C 220.1875 183.273438 220.050781 183.132812 219.914062 182.996094 L 213.046875 180.386719 C 213.046875 180.386719 212.910156 180.386719 212.910156 180.386719 C 212.632812 180.386719 212.496094 180.660156 212.496094 180.796875 L 212.632812 186.707031 C 212.632812 186.84375 212.769531 186.980469 212.910156 187.121094 L 219.914062 190.003906 C 219.914062 190.003906 220.050781 190.003906 220.050781 190.003906 C 220.324219 190.003906 220.460938 189.730469 220.460938 189.59375 Z M 220.1875 183.410156 "/><path style=" stroke:none;fill-rule:nonzero;fill:#030405;fill-opacity:1;" d="M 194.367188 189.179688 C 194.367188 189.316406 194.503906 189.457031 194.640625 189.457031 L 202.058594 192.066406 C 202.195312 192.066406 202.332031 192.066406 202.46875 191.929688 C 202.609375 191.792969 202.609375 191.515625 202.46875 191.378906 C 202.332031 191.242188 202.332031 191.242188 202.195312 191.105469 C 202.058594 190.96875 202.058594 190.691406 202.058594 190.691406 L 201.921875 187.257812 C 201.921875 186.707031 201.644531 186.296875 201.097656 186.019531 L 194.640625 183.132812 C 194.640625 183.132812 194.503906 183.132812 194.503906 183.273438 Z M 194.367188 189.179688 "/><path style=" stroke:none;fill-rule:nonzero;fill:#030405;fill-opacity:1;" d="M 227.878906 186.15625 L 221.699219 183.683594 C 221.699219 183.683594 221.5625 183.683594 221.5625 183.683594 C 221.421875 183.683594 221.285156 183.820312 221.285156 183.960938 L 221.421875 189.59375 C 221.421875 189.867188 221.5625 190.140625 221.699219 190.28125 C 223.621094 191.792969 225.820312 192.753906 228.289062 193.304688 C 228.429688 193.304688 228.566406 193.164062 228.566406 193.027344 L 228.429688 186.980469 C 228.566406 186.570312 228.289062 186.296875 227.878906 186.15625 Z M 227.878906 186.15625 "/><path style=" stroke:none;fill-rule:nonzero;fill:#030405;fill-opacity:1;" d="M 203.570312 186.707031 C 203.292969 186.707031 203.019531 186.980469 203.019531 187.257812 L 203.292969 191.792969 C 203.292969 192.339844 203.570312 192.753906 204.117188 193.027344 C 206.179688 194.128906 208.511719 194.8125 210.847656 195.363281 L 211.121094 189.59375 C 209.0625 188.355469 206.589844 187.394531 203.84375 186.707031 C 203.707031 186.707031 203.570312 186.707031 203.570312 186.707031 Z M 203.570312 186.707031 "/><path style=" stroke:none;fill-rule:nonzero;fill:#030405;fill-opacity:1;" d="M 230.761719 203.609375 C 230.761719 203.746094 230.898438 203.746094 231.039062 203.746094 L 231.175781 203.746094 C 231.3125 203.746094 231.449219 203.609375 231.449219 203.332031 C 231.585938 198.523438 231.722656 193.988281 231.863281 189.457031 C 231.863281 188.632812 231.722656 187.945312 231.175781 187.53125 C 231.175781 187.53125 231.039062 187.394531 230.898438 187.394531 C 230.761719 187.394531 230.625 187.53125 230.625 187.804688 Z M 230.761719 203.609375 "/><path style=" stroke:none;fill-rule:nonzero;fill:#030405;fill-opacity:1;" d="M 212.496094 193.441406 L 212.632812 191.515625 L 212.632812 196.1875 C 214.695312 197.5625 217.027344 198.523438 219.363281 199.210938 C 219.636719 199.210938 219.777344 199.347656 219.777344 199.210938 C 220.050781 199.074219 220.1875 198.800781 220.1875 198.386719 L 219.914062 193.714844 C 219.914062 193.164062 219.636719 192.753906 219.089844 192.617188 L 212.910156 190.003906 C 212.910156 190.003906 212.769531 190.003906 212.769531 190.003906 C 212.496094 190.003906 212.359375 190.28125 212.359375 190.554688 L 212.359375 192.476562 Z M 212.496094 193.441406 "/><path style=" stroke:none;fill-rule:nonzero;fill:#030405;fill-opacity:1;" d="M 221.421875 198.9375 C 221.421875 199.210938 221.5625 199.488281 221.835938 199.488281 L 227.328125 202.097656 C 227.464844 202.097656 227.464844 202.097656 227.605469 202.097656 C 228.015625 202.097656 228.289062 201.824219 228.289062 201.410156 L 228.289062 196.464844 C 228.289062 196.1875 228.152344 195.914062 227.878906 195.914062 L 222.246094 193.441406 C 222.109375 193.441406 222.109375 193.441406 221.972656 193.441406 C 221.5625 193.441406 221.285156 193.714844 221.285156 194.128906 Z M 221.421875 198.9375 "/><path style=" stroke:none;fill-rule:nonzero;fill:#030405;fill-opacity:1;" d="M 194.917969 204.984375 C 197.113281 206.21875 199.449219 206.496094 201.507812 207.179688 C 202.058594 205.394531 202.195312 203.332031 201.921875 200.859375 C 201.921875 200.722656 201.921875 200.449219 201.785156 200.3125 C 201.644531 200.171875 201.507812 200.035156 201.234375 199.898438 C 199.175781 199.074219 196.976562 198.25 194.917969 197.289062 C 194.777344 197.152344 194.640625 197.289062 194.640625 197.425781 L 194.640625 204.433594 C 194.640625 204.707031 194.640625 204.84375 194.917969 204.984375 Z M 194.917969 204.984375 "/><path style=" stroke:none;fill-rule:nonzero;fill:#030405;fill-opacity:1;" d="M 211.261719 203.195312 L 203.84375 200.722656 C 203.570312 200.585938 203.433594 200.722656 203.292969 200.996094 C 203.15625 201.273438 203.15625 201.683594 203.292969 202.097656 L 203.84375 207.730469 C 206.042969 208.554688 208.238281 209.378906 210.300781 209.929688 C 210.847656 210.066406 211.121094 209.929688 211.261719 209.792969 Z M 211.261719 203.195312 "/><path style=" stroke:none;fill-rule:nonzero;fill:#030405;fill-opacity:1;" d="M 220.597656 212.128906 L 220.597656 207.320312 C 220.597656 206.496094 220.1875 205.945312 219.363281 205.667969 L 212.632812 203.609375 L 212.632812 209.792969 C 212.632812 210.066406 212.769531 210.203125 213.046875 210.339844 C 215.105469 211.441406 217.441406 212.265625 219.777344 212.816406 C 219.777344 212.816406 219.914062 212.816406 219.914062 212.816406 C 220.1875 212.953125 220.597656 212.539062 220.597656 212.128906 Z M 220.597656 212.128906 "/><path style=" stroke:none;fill-rule:nonzero;fill:#030405;fill-opacity:1;" d="M 228.976562 215.152344 L 228.976562 209.242188 C 228.976562 209.105469 228.839844 208.832031 228.703125 208.832031 L 221.972656 206.769531 C 221.972656 206.769531 221.835938 206.769531 221.835938 206.769531 C 221.5625 206.769531 221.421875 206.90625 221.421875 207.179688 L 221.5625 213.226562 C 221.5625 213.363281 221.699219 213.640625 221.835938 213.640625 L 228.289062 215.5625 C 228.289062 215.5625 228.429688 215.5625 228.429688 215.5625 C 228.703125 215.5625 228.976562 215.425781 228.976562 215.152344 Z M 228.976562 215.152344 "/><path style=" stroke:none;fill-rule:nonzero;fill:#030405;fill-opacity:1;" d="M 194.777344 215.015625 L 201.507812 216.664062 C 201.644531 216.664062 201.785156 216.523438 201.785156 216.386719 L 201.644531 210.203125 C 201.644531 210.066406 201.644531 210.066406 201.507812 210.066406 L 194.917969 208.28125 C 194.777344 208.28125 194.640625 208.417969 194.640625 208.554688 L 194.640625 214.875 C 194.640625 214.875 194.640625 215.015625 194.777344 215.015625 Z M 194.777344 215.015625 "/><path style=" stroke:none;fill-rule:nonzero;fill:#030405;fill-opacity:1;" d="M 231.449219 228.203125 C 231.722656 228.203125 232 219.960938 232 209.929688 L 232 209.792969 C 232 209.65625 231.863281 209.65625 231.863281 209.65625 L 231.039062 209.65625 C 230.898438 209.65625 230.898438 209.792969 230.898438 209.792969 L 230.898438 209.929688 C 230.898438 209.929688 230.898438 209.929688 230.898438 210.066406 C 230.898438 220.234375 231.039062 228.34375 231.3125 228.34375 L 231.449219 228.34375 Z M 231.449219 228.203125 "/><path style=" stroke:none;fill-rule:nonzero;fill:#030405;fill-opacity:1;" d="M 211.261719 219.136719 L 210.984375 213.914062 C 210.984375 213.777344 210.847656 213.640625 210.710938 213.503906 L 203.980469 210.617188 C 203.980469 210.617188 203.84375 210.617188 203.84375 210.617188 C 203.570312 210.617188 203.433594 210.753906 203.433594 211.027344 L 203.292969 217.074219 C 203.292969 217.210938 203.433594 217.488281 203.570312 217.488281 L 210.710938 219.546875 C 210.710938 219.546875 210.847656 219.546875 210.847656 219.546875 C 211.121094 219.546875 211.261719 219.410156 211.261719 219.136719 Z M 211.261719 219.136719 "/><path style=" stroke:none;fill-rule:nonzero;fill:#030405;fill-opacity:1;" d="M 219.914062 215.976562 L 213.183594 213.777344 C 213.183594 213.777344 213.046875 213.777344 213.046875 213.777344 C 212.769531 213.777344 212.632812 214.050781 212.632812 214.1875 L 212.910156 219.824219 C 212.910156 219.960938 213.046875 220.234375 213.183594 220.234375 L 219.777344 222.160156 C 219.777344 222.160156 219.914062 222.160156 219.914062 222.160156 C 220.1875 222.160156 220.324219 221.882812 220.324219 221.746094 L 220.324219 216.386719 C 220.1875 216.25 220.050781 216.113281 219.914062 215.976562 Z M 219.914062 215.976562 "/><path style=" stroke:none;fill-rule:nonzero;fill:#030405;fill-opacity:1;" d="M 228.566406 224.769531 L 228.429688 219.410156 C 228.429688 219.273438 228.289062 219 228.152344 219 L 221.972656 216.523438 C 221.972656 216.523438 221.835938 216.523438 221.835938 216.523438 C 221.5625 216.523438 221.421875 216.800781 221.421875 216.9375 L 221.5625 222.296875 C 221.5625 222.433594 221.699219 222.707031 221.835938 222.707031 L 228.015625 225.320312 C 228.015625 225.320312 228.152344 225.320312 228.152344 225.320312 C 228.289062 225.320312 228.566406 225.042969 228.566406 224.769531 Z M 228.566406 224.769531 "/><path style=" stroke:none;fill-rule:nonzero;fill:#030405;fill-opacity:1;" d="M 194.917969 227.378906 L 200.683594 228.617188 C 200.820312 228.617188 200.820312 228.617188 200.960938 228.617188 C 201.644531 228.617188 202.195312 228.066406 202.195312 227.378906 L 202.195312 223.394531 C 202.195312 223.121094 202.058594 222.984375 201.785156 222.847656 L 195.464844 221.058594 C 195.328125 221.058594 195.191406 221.195312 195.054688 221.335938 L 194.640625 226.96875 C 194.640625 227.242188 194.777344 227.378906 194.917969 227.378906 Z M 194.917969 227.378906 "/><path style=" stroke:none;fill-rule:nonzero;fill:#030405;fill-opacity:1;" d="M 203.84375 229.441406 L 210.023438 230.953125 C 210.574219 231.089844 210.847656 230.816406 210.847656 230.265625 L 210.847656 225.867188 C 210.847656 225.320312 210.574219 224.90625 210.023438 224.769531 L 203.84375 223.394531 C 203.15625 223.257812 202.882812 223.53125 202.882812 224.082031 L 202.746094 228.066406 C 203.019531 228.753906 203.292969 229.304688 203.84375 229.441406 Z M 203.84375 229.441406 "/><path style=" stroke:none;fill-rule:nonzero;fill:#030405;fill-opacity:1;" d="M 213.046875 231.503906 L 220.460938 233.015625 C 220.460938 233.015625 220.460938 233.015625 220.597656 233.015625 C 220.875 233.015625 221.011719 232.738281 221.011719 232.601562 L 220.875 228.066406 C 220.875 227.929688 220.738281 227.65625 220.597656 227.65625 L 212.910156 225.457031 C 212.910156 225.457031 212.769531 225.457031 212.769531 225.457031 C 212.496094 225.457031 212.359375 225.730469 212.359375 225.867188 L 212.632812 231.089844 C 212.769531 231.226562 212.910156 231.503906 213.046875 231.503906 Z M 213.046875 231.503906 "/><path style=" stroke:none;fill-rule:nonzero;fill:#030405;fill-opacity:1;" d="M 222.523438 228.066406 C 222.523438 228.066406 222.386719 228.066406 222.523438 228.066406 C 222.109375 228.066406 221.835938 228.34375 221.835938 228.617188 L 221.972656 233.152344 C 221.972656 233.425781 222.109375 233.5625 222.386719 233.703125 L 227.191406 235.214844 C 227.191406 235.214844 227.328125 235.214844 227.328125 235.214844 C 227.605469 235.214844 227.878906 234.9375 227.878906 234.664062 L 228.152344 229.441406 C 228.152344 229.167969 228.015625 228.890625 227.742188 228.890625 Z M 222.523438 228.066406 "/><path style=" stroke:none;fill-rule:nonzero;fill:#030405;fill-opacity:1;" d="M 297.511719 299.382812 C 287.621094 298.007812 277.183594 297.046875 267.160156 295.671875 C 261.941406 294.988281 254.796875 294.574219 251.640625 294.300781 C 247.792969 293.886719 243.808594 293.613281 239.964844 293.335938 C 217.304688 291.964844 194.640625 291.550781 171.980469 291.964844 C 166.625 292.101562 156.734375 292.101562 149.179688 292.511719 C 125.144531 293.75 97.679688 296.085938 71.996094 299.246094 C 71.171875 299.382812 71.171875 299.519531 71.996094 299.660156 C 71.996094 299.660156 72.40625 299.660156 72.820312 299.660156 C 77.214844 299.246094 82.15625 299.246094 86.277344 298.832031 C 105.09375 297.183594 123.773438 295.949219 142.589844 295.125 C 154.949219 294.4375 164.839844 294.574219 175.964844 294.023438 C 177.199219 294.023438 179.121094 294.023438 181.730469 294.023438 C 184.339844 294.023438 187.089844 293.886719 189.421875 293.886719 C 193.816406 294.023438 198.210938 294.023438 202.609375 294.023438 C 206.867188 294.023438 213.59375 294.4375 218.953125 294.4375 C 224.308594 294.4375 229.664062 294.988281 235.019531 295.261719 C 238.453125 295.398438 242.4375 295.671875 246.832031 295.949219 C 252.050781 296.359375 257.542969 296.222656 262.765625 296.773438 L 303.964844 300.207031 C 303.964844 300.207031 304.105469 300.207031 304.105469 300.207031 C 304.105469 300.207031 304.242188 300.070312 304.105469 299.933594 C 304.105469 299.933594 303.964844 299.796875 303.964844 299.796875 C 301.90625 299.933594 299.707031 299.796875 297.511719 299.382812 Z M 297.511719 299.382812 "/><g clip-rule="nonzero" clip-path="url(#95f5a8fd43)"><path style=" stroke:none;fill-rule:nonzero;fill:#030405;fill-opacity:1;" d="M 374.699219 311.613281 L 345.855469 308.863281 C 335.28125 307.765625 324.566406 306.667969 313.855469 305.703125 C 311.65625 305.566406 308.636719 305.566406 306.027344 305.15625 C 302.59375 304.742188 300.671875 304.46875 300.257812 304.332031 C 287.898438 303.230469 275.535156 302.132812 263.039062 301.167969 C 244.359375 300.207031 225.132812 299.660156 194.367188 299.382812 C 181.59375 299.382812 164.839844 299.382812 144.238281 299.660156 C 127.070312 300.207031 110.039062 300.757812 93.007812 302.269531 C 91.085938 302.40625 88.75 302.40625 87.238281 302.542969 C 73.503906 304.054688 59.769531 305.292969 46.035156 306.527344 C 39.855469 307.078125 33.675781 307.765625 27.496094 308.589844 C 18.707031 309.6875 9.914062 309.964844 1.125 310.789062 C 0.851562 310.789062 0.578125 310.789062 0.578125 310.925781 C 0.164062 311.0625 0.164062 311.199219 0.714844 311.199219 L 8.816406 311.199219 C 27.222656 310.238281 45.351562 309.550781 63.617188 308.863281 C 87.652344 308.039062 111.273438 306.667969 140.804688 306.117188 C 179.121094 305.566406 217.304688 305.703125 255.621094 306.804688 C 277.320312 307.351562 299.160156 308.589844 320.859375 309.414062 C 334.457031 309.964844 347.917969 310.652344 361.511719 311.0625 L 374.835938 311.476562 C 374.835938 311.75 374.835938 311.75 374.699219 311.613281 C 374.835938 311.613281 374.835938 311.613281 374.699219 311.613281 C 374.835938 311.613281 374.835938 311.613281 374.699219 311.613281 Z M 374.699219 311.613281 "/></g><g style="fill:#000000;fill-opacity:1;"><g transform="translate(252.956268, 193.124987)"><path style="stroke:none" d="M 3.5625 0.171875 C 2.707031 0.171875 2.039062 -0.0507812 1.5625 -0.5 C 1.09375 -0.945312 0.859375 -1.582031 0.859375 -2.40625 C 0.859375 -2.914062 0.960938 -3.34375 1.171875 -3.6875 C 1.378906 -4.039062 1.703125 -4.328125 2.140625 -4.546875 C 2.585938 -4.773438 3.171875 -4.945312 3.890625 -5.0625 C 4.515625 -5.164062 4.988281 -5.28125 5.3125 -5.40625 C 5.632812 -5.539062 5.851562 -5.6875 5.96875 -5.84375 C 6.082031 -6.007812 6.140625 -6.21875 6.140625 -6.46875 C 6.140625 -6.851562 6.003906 -7.148438 5.734375 -7.359375 C 5.460938 -7.566406 5.03125 -7.671875 4.4375 -7.671875 C 3.882812 -7.671875 3.40625 -7.5625 3 -7.34375 C 2.601562 -7.132812 2.238281 -6.816406 1.90625 -6.390625 L 1.75 -6.390625 L 1.125 -7.265625 C 1.488281 -7.734375 1.953125 -8.101562 2.515625 -8.375 C 3.078125 -8.644531 3.71875 -8.78125 4.4375 -8.78125 C 5.457031 -8.78125 6.207031 -8.554688 6.6875 -8.109375 C 7.164062 -7.671875 7.40625 -7.054688 7.40625 -6.265625 L 7.40625 -1.703125 C 7.40625 -1.222656 7.609375 -0.984375 8.015625 -0.984375 C 8.148438 -0.984375 8.28125 -1.003906 8.40625 -1.046875 L 8.515625 -1.015625 L 8.671875 -0.140625 C 8.578125 -0.078125 8.453125 -0.03125 8.296875 0 C 8.140625 0.0390625 7.984375 0.0625 7.828125 0.0625 C 7.347656 0.0625 6.988281 -0.0390625 6.75 -0.25 C 6.507812 -0.457031 6.351562 -0.765625 6.28125 -1.171875 L 6.125 -1.1875 C 5.875 -0.738281 5.539062 -0.398438 5.125 -0.171875 C 4.707031 0.0546875 4.1875 0.171875 3.5625 0.171875 Z M 3.84375 -0.859375 C 4.320312 -0.859375 4.734375 -0.96875 5.078125 -1.1875 C 5.429688 -1.40625 5.703125 -1.710938 5.890625 -2.109375 C 6.078125 -2.515625 6.171875 -2.984375 6.171875 -3.515625 L 6.171875 -4.609375 L 6.03125 -4.640625 C 5.832031 -4.503906 5.59375 -4.390625 5.3125 -4.296875 C 5.039062 -4.203125 4.660156 -4.117188 4.171875 -4.046875 C 3.671875 -3.984375 3.269531 -3.878906 2.96875 -3.734375 C 2.675781 -3.597656 2.46875 -3.421875 2.34375 -3.203125 C 2.21875 -2.984375 2.15625 -2.71875 2.15625 -2.40625 C 2.15625 -1.894531 2.300781 -1.507812 2.59375 -1.25 C 2.894531 -0.988281 3.3125 -0.859375 3.84375 -0.859375 Z M 3.84375 -0.859375 "/></g></g></g></svg>